<?xml version="1.0" encoding="UTF-8" standalone="no"?>
<svg
   xmlns:dc="http://purl.org/dc/elements/1.1/"
   xmlns:cc="http://creativecommons.org/ns#"
   xmlns:rdf="http://www.w3.org/1999/02/22-rdf-syntax-ns#"
   xmlns:svg="http://www.w3.org/2000/svg"
   xmlns="http://www.w3.org/2000/svg"
   viewBox="0 0 332.18668 134.77333"
   height="134.77333"
   width="332.18668"
   xml:space="preserve"
   id="svg2"
   version="1.1"><metadata
     id="metadata8"><rdf:RDF><cc:Work
         rdf:about=""><dc:format>image/svg+xml</dc:format><dc:type
           rdf:resource="http://purl.org/dc/dcmitype/StillImage" /></cc:Work></rdf:RDF></metadata><defs
     id="defs6"><clipPath
       id="clipPath52"
       clipPathUnits="userSpaceOnUse"><path
         id="path50"
         d="m 265.758,121.645 v 190.39 H 0 L 97.1875,216.898 0.00390625,121.645 Z" /></clipPath><linearGradient
       id="linearGradient60"
       spreadMethod="pad"
       gradientTransform="matrix(-265.757,0,0,-341.898,265.757,216.841)"
       gradientUnits="userSpaceOnUse"
       y2="0"
       x2="1"
       y1="0"
       x1="0"><stop
         id="stop54"
         offset="0"
         style="stop-opacity:1;stop-color:#a51c22" /><stop
         id="stop56"
         offset="0.66588093"
         style="stop-opacity:1;stop-color:#ec1e27" /><stop
         id="stop58"
         offset="1"
         style="stop-opacity:1;stop-color:#ec1e27" /></linearGradient><clipPath
       id="clipPath70"
       clipPathUnits="userSpaceOnUse"><path
         id="path68"
         d="m 725.703,0 c 173.496,0 336.857,16.9883 485.567,50.4922 l 2.74,0.625 V 246.207 l -4.19,-0.949 c -147.75,-33.36 -310.621,-50.293 -484.117,-50.293 -294.457,0 -520.043,49.785 -522.289,50.293 l -5.91,0.937 V 51.1172 l 4.465,-0.625 C 204.211,49.9844 429.602,0 725.703,0 Z" /></clipPath><linearGradient
       id="linearGradient84"
       spreadMethod="pad"
       gradientTransform="matrix(-1016.51,0,0,-1307.74,1214.01,123.104)"
       gradientUnits="userSpaceOnUse"
       y2="0"
       x2="1"
       y1="0"
       x1="0"><stop
         id="stop72"
         offset="0"
         style="stop-opacity:1;stop-color:#a51c22" /><stop
         id="stop74"
         offset="0.16096424"
         style="stop-opacity:1;stop-color:#ec1e27" /><stop
         id="stop76"
         offset="0.5"
         style="stop-opacity:1;stop-color:#ec1e27" /><stop
         id="stop78"
         offset="0.83186041"
         style="stop-opacity:1;stop-color:#ec1e27" /><stop
         id="stop80"
         offset="0.989418"
         style="stop-opacity:1;stop-color:#a51c22" /><stop
         id="stop82"
         offset="1"
         style="stop-opacity:1;stop-color:#a51c22" /></linearGradient><clipPath
       id="clipPath112"
       clipPathUnits="userSpaceOnUse"><path
         id="path110"
         d="m 2218.93,121.996 v 190.391 h 268.14 l -98.08,-95.157 98.07,-95.234 z" /></clipPath><linearGradient
       id="linearGradient126"
       spreadMethod="pad"
       gradientTransform="matrix(268.144,0,0,-268.144,2218.93,217.192)"
       gradientUnits="userSpaceOnUse"
       y2="0"
       x2="1"
       y1="0"
       x1="0"><stop
         id="stop114"
         offset="0"
         style="stop-opacity:1;stop-color:#393536" /><stop
         id="stop116"
         offset="0.16096424"
         style="stop-opacity:1;stop-color:#918f90" /><stop
         id="stop118"
         offset="0.5"
         style="stop-opacity:1;stop-color:#918f90" /><stop
         id="stop120"
         offset="0.83186041"
         style="stop-opacity:1;stop-color:#918f90" /><stop
         id="stop122"
         offset="0.989418"
         style="stop-opacity:1;stop-color:#393536" /><stop
         id="stop124"
         offset="1"
         style="stop-opacity:1;stop-color:#393536" /></linearGradient><clipPath
       id="clipPath136"
       clipPathUnits="userSpaceOnUse"><path
         id="path134"
         d="M 0,0 H 2491 V 1011 H 0 Z" /></clipPath><clipPath
       id="clipPath142"
       clipPathUnits="userSpaceOnUse"><path
         id="path140"
         d="M 2491.36,314.223 H 2216.83 V 120.16 h 274.52 l -6.51,6.309 -93.45,90.761 93.45,90.676 6.52,6.317 z m -9.09,-3.68 -96.18,-93.313 96.18,-93.398 h -261.75 v 186.711 h 261.75" /></clipPath><linearGradient
       id="linearGradient156"
       spreadMethod="pad"
       gradientTransform="matrix(274.531,0,0,-274.531,2216.83,217.192)"
       gradientUnits="userSpaceOnUse"
       y2="0"
       x2="1"
       y1="0"
       x1="0"><stop
         id="stop144"
         offset="0"
         style="stop-opacity:1;stop-color:#393536" /><stop
         id="stop146"
         offset="0.16096424"
         style="stop-opacity:1;stop-color:#918f90" /><stop
         id="stop148"
         offset="0.5"
         style="stop-opacity:1;stop-color:#918f90" /><stop
         id="stop150"
         offset="0.83186041"
         style="stop-opacity:1;stop-color:#918f90" /><stop
         id="stop152"
         offset="0.989418"
         style="stop-opacity:1;stop-color:#393536" /><stop
         id="stop154"
         offset="1"
         style="stop-opacity:1;stop-color:#393536" /></linearGradient><clipPath
       id="clipPath168"
       clipPathUnits="userSpaceOnUse"><path
         id="path166"
         d="m 1730.18,0.351563 c -182.56,0 -354.48,16.976537 -510.97,50.492237 l -5.2,0.6445 V 246.566 l 6.72,-0.957 c 155.49,-33.359 326.89,-50.293 509.45,-50.293 309.88,0 547.26,49.778 549.63,50.293 l 4.41,0.938 V 51.4492 l -2.88,-0.6054 C 2278.96,50.3281 2041.78,0.351563 1730.18,0.351563 Z" /></clipPath><linearGradient
       id="linearGradient184"
       spreadMethod="pad"
       gradientTransform="matrix(1070.21,0,0,-1070.21,1214.01,123.456)"
       gradientUnits="userSpaceOnUse"
       y2="0"
       x2="1"
       y1="0"
       x1="0"><stop
         id="stop170"
         offset="0"
         style="stop-opacity:1;stop-color:#5b6364" /><stop
         id="stop172"
         offset="0.0306748"
         style="stop-opacity:1;stop-color:#5b6364" /><stop
         id="stop174"
         offset="0.28762388"
         style="stop-opacity:1;stop-color:#969f95" /><stop
         id="stop176"
         offset="0.5"
         style="stop-opacity:1;stop-color:#969f95" /><stop
         id="stop178"
         offset="0.7500739"
         style="stop-opacity:1;stop-color:#969f95" /><stop
         id="stop180"
         offset="0.989418"
         style="stop-opacity:1;stop-color:#464f44" /><stop
         id="stop182"
         offset="1"
         style="stop-opacity:1;stop-color:#464f44" /></linearGradient></defs><g
     transform="matrix(1.3333333,0,0,-1.3333333,0,134.77333)"
     id="g10"><g
       transform="scale(0.1)"
       id="g12"><path
         id="path14"
         style="fill:#5b6364;fill-opacity:1;fill-rule:nonzero;stroke:none"
         d="M 1173.51,89.2227 H 265.758 V 726.664 H 1173.51 V 89.2227" /><path
         id="path16"
         style="fill:#231f20;fill-opacity:1;fill-rule:nonzero;stroke:none"
         d="m 265.758,174.262 v 90.566 l -68.254,-65.84 47.125,-40.84 21.129,16.114" /><path
         id="path18"
         style="fill:#83171c;fill-opacity:1;fill-rule:nonzero;stroke:none"
         d="M 2216.83,88.4219 H 1214.77 V 725.879 H 2216.83 V 88.4219" /><path
         id="path20"
         style="fill:#5b6364;fill-opacity:1;fill-rule:nonzero;stroke:none"
         d="m 562.016,889.844 h -119.34 v -55.121 c 0,-17.981 0.445,-29.754 1.347,-35.313 0.899,-5.562 3.172,-9.695 6.829,-12.39 3.644,-2.7 10.589,-4.047 20.812,-4.047 h 5.899 v -7.754 H 374.742 v 7.754 h 5.903 c 9.777,0 16.543,1.234 20.308,3.707 3.766,2.468 6.18,6.324 7.25,11.547 1.067,5.226 1.602,17.386 1.602,36.496 v 112.093 c 0,18.204 -0.535,29.946 -1.602,35.231 -1.07,5.277 -3.316,8.93 -6.742,10.957 -3.43,2.019 -10.93,3.031 -22.508,3.031 h -4.211 v 7.755 h 102.821 v -7.755 h -4.211 c -11.125,0 -18.43,-0.93 -21.911,-2.785 -3.488,-1.848 -5.816,-5.305 -7,-10.363 -1.179,-5.055 -1.765,-17.082 -1.765,-36.071 v -45.343 h 119.34 v 45.343 c 0,18.204 -0.508,29.946 -1.52,35.231 -1.008,5.277 -3.23,8.93 -6.656,10.957 -3.43,2.019 -10.93,3.031 -22.5,3.031 h -6.07 v 7.755 h 104.003 v -7.755 h -3.375 c -11.234,0 -18.597,-0.93 -22.082,-2.785 -3.484,-1.848 -5.812,-5.305 -6.996,-10.363 -1.175,-5.055 -1.765,-17.082 -1.765,-36.071 V 834.723 c 0,-17.981 0.418,-29.754 1.261,-35.313 0.84,-5.562 3.118,-9.695 6.829,-12.39 3.707,-2.7 10.671,-4.047 20.902,-4.047 h 5.226 v -7.754 H 525.27 v 7.754 h 7.921 c 9.664,0 16.379,1.234 20.145,3.707 3.766,2.468 6.152,6.324 7.16,11.547 1.012,5.226 1.52,17.386 1.52,36.496 v 55.121" /><path
         id="path22"
         style="fill:#5b6364;fill-opacity:1;fill-rule:nonzero;stroke:none"
         d="m 719.789,893.211 v -50.902 c 0,-21.688 0.391,-35.457 1.184,-41.297 0.781,-5.848 2.89,-10.285 6.316,-13.317 3.43,-3.039 10.199,-4.55 20.313,-4.55 17.98,0 31.464,4.605 40.457,13.816 8.988,9.215 13.484,23.039 13.484,41.473 0,18.875 -5.09,32.781 -15.254,41.718 -10.172,8.93 -28.066,13.399 -53.687,13.399 -4.047,0 -8.321,-0.113 -12.813,-0.34 z m 0,8.262 c 2.809,-0.118 5.168,-0.168 7.082,-0.168 24.274,0 40.844,3.816 49.727,11.465 8.875,7.636 13.312,20 13.312,37.078 0,11.91 -1.742,21.129 -5.222,27.648 -3.489,6.512 -8.711,11.543 -15.68,15.082 -6.965,3.539 -18.875,5.313 -35.731,5.313 -4.386,0 -8.882,-0.172 -13.488,-0.508 z m 41.301,-3.203 c 25.957,-1.915 45.226,-8.372 57.816,-19.383 12.582,-11.016 18.875,-24.782 18.875,-41.301 0,-14.383 -4.269,-26.777 -12.808,-37.168 -8.543,-10.395 -19.469,-17.191 -32.785,-20.395 -13.317,-3.203 -31.157,-4.804 -53.52,-4.804 h -89.676 v 7.754 h 8.766 c 9.777,0 16.551,1.234 20.312,3.707 3.766,2.468 6.153,6.324 7.164,11.547 1.012,5.226 1.52,17.386 1.52,36.496 v 111.25 c 0,18.543 -0.539,30.511 -1.602,35.902 -1.07,5.395 -3.316,9.102 -6.746,11.129 -3.426,2.019 -10.926,3.031 -22.504,3.031 h -4.379 v 7.755 l 37.586,1.01 42.821,1.35 c 62.472,0 93.718,-17.982 93.718,-53.939 0,-14.832 -5.371,-26.746 -16.097,-35.738 -10.735,-8.993 -26.883,-15.059 -48.461,-18.203" /><path
         id="path24"
         style="fill:#5b6364;fill-opacity:1;fill-rule:nonzero;stroke:none"
         d="m 1050.54,861.016 h 7.25 v -80.063 h -7.25 c -2.02,9.102 -5.68,17.133 -10.96,24.102 -20.11,-22.703 -45.791,-34.051 -77.025,-34.051 -33.043,0 -60.039,10.449 -80.996,31.355 -20.961,20.903 -31.438,48.543 -31.438,82.934 0,22.582 4.828,43.848 14.496,63.797 9.664,19.949 23.149,34.754 40.457,44.414 17.305,9.666 36.293,14.496 56.973,14.496 17.078,0 32.558,-3.51 46.443,-10.531 13.87,-7.024 24.24,-14.809 31.09,-23.348 4.83,9.551 7.76,19.442 8.77,29.669 h 7.42 l 2.02,-86.642 h -7.25 c -5.06,30.79 -15.37,52.196 -30.93,64.223 -15.57,12.024 -33.122,18.039 -52.676,18.039 -23.938,0 -42.954,-9.722 -57.055,-29.168 -14.109,-19.441 -21.156,-47.254 -21.156,-83.437 0,-34.278 7.695,-60.539 23.093,-78.801 15.391,-18.262 34.551,-27.391 57.477,-27.391 12.25,0 24.777,2.977 37.587,8.934 12.81,5.957 22.95,16.039 30.43,30.258 7.47,14.215 11.88,27.953 13.23,41.211" /><path
         id="path26"
         style="fill:#83171c;fill-opacity:1;fill-rule:nonzero;stroke:none"
         d="m 1359.39,777.578 v 73.496 h 8.43 c 9.55,-47.871 32.2,-71.808 67.93,-71.808 16.07,0 28.52,4.578 37.34,13.738 8.81,9.152 13.23,19.406 13.23,30.762 0,11.464 -3.88,21.066 -11.63,28.82 -7.76,7.644 -21.92,15.848 -42.48,24.609 -18.31,7.868 -32.14,14.754 -41.47,20.653 -9.32,5.902 -16.6,13.566 -21.82,23.011 -5.23,9.438 -7.85,19.493 -7.85,30.172 0,16.293 5.66,29.864 16.95,40.707 11.3,10.842 25.59,16.262 42.9,16.262 9.66,0 18.77,-1.57 27.3,-4.71 8.55,-3.15 17.31,-9.673 26.3,-19.56 5.17,6.176 8.09,12.868 8.76,20.06 h 7.42 v -59.841 h -7.42 c -4.27,17.418 -11.82,31.129 -22.66,41.129 -10.85,10 -23.41,15.002 -37.68,15.002 -13.59,0 -23.57,-3.678 -29.92,-11.041 -6.35,-7.359 -9.52,-15.422 -9.52,-24.187 0,-10.567 3.98,-19.5 11.97,-26.801 7.86,-7.418 22.08,-15.738 42.65,-24.946 19.65,-8.769 33.96,-15.82 42.89,-21.156 8.93,-5.34 16.1,-12.726 21.49,-22.164 5.39,-9.445 8.1,-20.344 8.1,-32.707 0,-19.551 -6.53,-35.453 -19.56,-47.699 -13.04,-12.25 -30.45,-18.375 -52.25,-18.375 -25.07,0 -45.97,9.609 -62.71,28.824 -3.71,-5.281 -6.46,-12.699 -8.26,-22.25 h -8.43" /><path
         id="path28"
         style="fill:#83171c;fill-opacity:1;fill-rule:nonzero;stroke:none"
         d="m 1720,842.477 -1.69,-67.258 h -194.18 v 7.754 h 6.75 c 9.77,0 16.54,1.234 20.3,3.707 3.77,2.468 6.18,6.324 7.26,11.547 1.06,5.226 1.6,17.386 1.6,36.496 v 112.093 c 0,18.204 -0.54,29.946 -1.6,35.231 -1.08,5.277 -3.32,8.93 -6.75,10.957 -3.43,2.019 -10.93,3.031 -22.5,3.031 h -5.06 v 7.755 h 109.74 v -7.755 h -10.12 c -11.24,0 -18.59,-0.93 -22.08,-2.785 -3.49,-1.848 -5.81,-5.305 -6.99,-10.363 -1.18,-5.055 -1.78,-17.082 -1.78,-36.071 V 827.137 c 0,-16.516 0.45,-26.86 1.36,-31.016 0.9,-4.16 3.34,-7.391 7.32,-9.691 4,-2.305 12.56,-3.457 25.71,-3.457 h 17.37 c 14.04,0 24.46,1.234 31.26,3.707 6.79,2.468 13.26,7.867 19.38,16.187 6.13,8.309 11.72,21.512 16.78,39.61 h 7.92" /><path
         id="path30"
         style="fill:#83171c;fill-opacity:1;fill-rule:nonzero;stroke:none"
         d="m 1784.67,893.211 v -50.902 c 0,-21.688 0.39,-35.457 1.18,-41.297 0.78,-5.848 2.89,-10.285 6.32,-13.317 3.43,-3.039 10.19,-4.55 20.31,-4.55 17.98,0 31.47,4.605 40.46,13.816 8.98,9.215 13.48,23.039 13.48,41.473 0,18.875 -5.08,32.781 -15.26,41.718 -10.16,8.93 -28.06,13.399 -53.68,13.399 -4.04,0 -8.32,-0.113 -12.81,-0.34 z m 0,8.262 c 2.81,-0.118 5.16,-0.168 7.08,-0.168 24.28,0 40.85,3.816 49.72,11.465 8.88,7.636 13.32,20 13.32,37.078 0,11.91 -1.74,21.129 -5.23,27.648 -3.48,6.512 -8.7,11.543 -15.67,15.082 -6.97,3.539 -18.88,5.313 -35.74,5.313 -4.38,0 -8.87,-0.172 -13.48,-0.508 z m 41.3,-3.203 c 25.95,-1.915 45.22,-8.372 57.81,-19.383 12.59,-11.016 18.89,-24.782 18.89,-41.301 0,-14.383 -4.28,-26.777 -12.82,-37.168 -8.54,-10.395 -19.47,-17.191 -32.78,-20.395 -13.32,-3.203 -31.16,-4.804 -53.53,-4.804 h -89.66 v 7.754 h 8.76 c 9.77,0 16.54,1.234 20.31,3.707 3.76,2.468 6.15,6.324 7.17,11.547 1,5.226 1.51,17.386 1.51,36.496 v 111.25 c 0,18.543 -0.54,30.511 -1.6,35.902 -1.07,5.395 -3.32,9.102 -6.74,11.129 -3.44,2.019 -10.94,3.031 -22.51,3.031 h -4.38 v 7.755 l 37.59,1.01 42.82,1.35 c 62.48,0 93.72,-17.982 93.72,-53.939 0,-14.832 -5.37,-26.746 -16.11,-35.738 -10.73,-8.993 -26.88,-15.059 -48.45,-18.203" /><path
         id="path32"
         style="fill:#83171c;fill-opacity:1;fill-rule:nonzero;stroke:none"
         d="m 2028.58,867.086 -40.45,97.43 -40.29,-97.43 z m 2.87,-7.586 h -86.81 l -5.9,-14.496 c -8.76,-21.016 -13.14,-34.727 -13.14,-41.129 0,-6.855 2.32,-12.055 6.99,-15.594 4.66,-3.539 10.64,-5.308 17.95,-5.308 v -7.754 h -67.93 v 7.754 c 10.11,1.574 17.64,5.14 22.59,10.703 4.94,5.562 10.89,17.281 17.87,35.148 0.55,1.684 3.25,8.203 8.08,19.551 l 66.42,158.615 h 6.57 l 76.36,-181.541 10.46,-23.937 c 2.35,-5.391 5.52,-9.633 9.52,-12.723 3.98,-3.09 9.97,-5.031 17.95,-5.816 v -7.754 h -89.85 v 7.754 c 11.02,0 18.46,0.816 22.34,2.445 3.87,1.629 5.82,4.859 5.82,9.695 0,2.465 -2.59,9.828 -7.76,22.078 l -17.53,42.309" /><path
         id="path34"
         style="fill:#ffffff;fill-opacity:1;fill-rule:nonzero;stroke:none"
         d="M 1190.23,1010.82 V 763.199" /><path
         id="path36"
         style="fill:none;stroke:#83171c;stroke-width:5;stroke-linecap:butt;stroke-linejoin:miter;stroke-miterlimit:10;stroke-dasharray:none;stroke-opacity:1"
         d="M 1190.23,1010.82 V 763.199" /><path
         id="path38"
         style="fill:#ffffff;fill-opacity:1;fill-rule:nonzero;stroke:none"
         d="m 1390.33,407.289 c -0.44,-13.926 3.48,-25.242 10.88,-33.074 7.4,-7.832 18.71,-12.18 32.64,-12.18 26.55,0 40.48,17.844 40.48,35.684 0,35.246 -34.83,33.945 -56.59,33.945 v 53.527 c 21.33,-1.746 53.97,2.61 53.97,31.332 0,20.02 -17.84,27.418 -35.68,27.418 -21.33,0 -37,-10.878 -39.6,-32.644 h -81.82 c 3.05,70.504 60.06,100.527 124.02,100.527 72.68,0 117.94,-33.504 117.94,-85.726 0,-27.852 -10.88,-48.305 -35.68,-60.496 27.85,-10.879 43.94,-33.938 43.94,-63.965 0,-71.379 -53.52,-107.492 -135.77,-107.492 -71.36,0 -125.33,36.984 -124.02,113.144 h 85.29" /><path
         id="path40"
         style="fill:#ffffff;fill-opacity:1;fill-rule:nonzero;stroke:none"
         d="m 1767.63,452.555 c 0,32.199 1.75,91.386 -43.08,91.386 -40.91,0 -41.78,-63.101 -41.78,-92.265 0,-53.528 8.27,-89.641 42.65,-89.641 32.21,0 42.21,39.16 42.21,90.52 z m -42.21,159.269 c 79.64,0 132.72,-52.656 132.72,-154.484 0,-87.473 -33.5,-163.195 -132.72,-163.195 -99.22,0 -133.16,74.855 -133.16,162.753 0.43,112.715 63.09,154.926 133.16,154.926" /><path
         id="path42"
         style="fill:#ffffff;fill-opacity:1;fill-rule:nonzero;stroke:none"
         d="m 1960.16,506.051 h -39.49 v -79.113 c 0,-12.149 0.54,-20.333 1.61,-24.54 1.06,-4.21 3.33,-7.589 6.79,-10.148 3.46,-2.559 7.16,-3.836 11.11,-3.836 7.67,0 14.32,4.375 19.98,13.106 l 5.1,-3.04 c -3.3,-7.031 -8.17,-12.332 -14.62,-15.898 -6.44,-3.562 -12.96,-5.352 -19.58,-5.352 -7.66,0 -14.41,2.266 -20.21,6.79 -5.81,4.531 -9.43,9.832 -10.87,15.906 -1.44,6.074 -2.16,16.719 -2.16,31.965 v 74.16 h -19.02 v 7.351 c 8.74,0.211 16.57,3.887 23.49,11.028 6.93,7.136 11.35,17.152 13.28,30.047 h 5.1 v -41.075 h 39.49 v -7.351" /><path
         id="path44"
         style="fill:#ffffff;fill-opacity:1;fill-rule:nonzero;stroke:none"
         d="m 2019.13,491.824 c 6.4,8.953 13.57,15.664 21.5,20.137 7.93,4.48 16.65,6.715 26.13,6.715 10.76,0 19.69,-2.235 26.78,-6.715 7.08,-4.473 11.68,-9.988 13.81,-16.543 2.14,-6.551 3.21,-17.176 3.21,-31.887 v -36.113 c 0,-15.352 0.29,-24.672 0.88,-27.969 0.58,-3.312 2.31,-5.734 5.19,-7.277 2.87,-1.543 8.2,-2.313 15.98,-2.313 v -7.355 H 2065 v 7.355 h 3.04 c 7.78,0 12.81,1.114 15.1,3.348 2.29,2.238 3.63,4.871 4,7.91 0.37,3.039 0.56,11.809 0.56,26.301 v 39.316 c 0,10.868 -0.64,18.911 -1.92,24.129 -1.28,5.219 -4.29,9.535 -9.03,12.95 -4.74,3.41 -10.69,5.113 -17.82,5.113 -8.31,0 -15.77,-2.422 -22.38,-7.27 -6.6,-4.851 -12.41,-12.125 -17.42,-21.816 v -52.422 c 0,-14.707 0.25,-23.77 0.72,-27.18 0.48,-3.41 2.1,-5.984 4.88,-7.742 2.77,-1.758 7.83,-2.637 15.18,-2.637 v -7.355 h -66.48 v 7.355 h 3.35 c 7.67,0 12.65,1.082 14.94,3.27 2.29,2.187 3.62,4.797 4,7.832 0.37,3.035 0.56,11.855 0.56,26.457 v 130.414 c 0,13.211 -1.25,21.578 -3.76,25.094 -2.5,3.515 -8.5,5.273 -17.98,5.273 v 7.352 c 16.51,0 30.26,2.238 41.24,6.715 h 3.35 V 491.824" /><g
         id="g46"><g
           clip-path="url(#clipPath52)"
           id="g48"><path
             id="path62"
             style="fill:url(#linearGradient60);fill-opacity:1;fill-rule:nonzero;stroke:none"
             d="m 265.758,121.645 v 190.39 H 0 L 97.1875,216.898 0.00390625,121.645 H 265.758" /></g></g><g
         id="g64"><g
           clip-path="url(#clipPath70)"
           id="g66"><path
             id="path86"
             style="fill:url(#linearGradient84);fill-opacity:1;fill-rule:nonzero;stroke:none"
             d="m 725.703,0 c 173.496,0 336.857,16.9883 485.567,50.4922 l 2.74,0.625 V 246.207 l -4.19,-0.949 c -147.75,-33.36 -310.621,-50.293 -484.117,-50.293 -294.457,0 -520.043,49.785 -522.289,50.293 l -5.91,0.937 V 51.1172 l 4.465,-0.625 C 204.211,49.9844 429.602,0 725.703,0" /></g></g><path
         id="path88"
         style="fill:#ffffff;fill-opacity:1;fill-rule:nonzero;stroke:none"
         d="m 364.078,81.9883 0.793,5.4297 c 28.969,14.805 44.594,30.059 46.883,45.711 0.652,4.453 -0.016,8.184 -2.008,11.191 -1.996,3.02 -4.976,4.805 -8.961,5.391 -3.258,0.48 -6.172,-0.02 -8.742,-1.484 -2.574,-1.473 -4.031,-3.379 -4.371,-5.743 -0.406,-2.773 0.133,-5.339 1.629,-7.695 0.312,-0.516 0.461,-0.887 0.426,-1.113 -0.063,-0.418 -0.696,-0.703 -1.914,-0.879 -0.805,-0.117 -2.872,-0.477 -6.188,-1.074 -3.211,-0.625 -5.184,-0.879 -5.918,-0.77 -0.871,0.125 -1.719,1.328 -2.523,3.602 -0.813,2.277 -1.036,4.629 -0.68,7.062 0.812,5.547 4.574,9.649 11.289,12.274 6.703,2.629 14.629,3.281 23.762,1.945 8.992,-1.328 16.258,-4.336 21.797,-9.043 5.535,-4.719 7.851,-10.156 6.953,-16.32 -0.535,-3.641 -2.082,-7.032 -4.649,-10.145 -2.57,-3.125 -8.277,-7.676 -17.148,-13.652 -8.863,-5.988 -17.453,-11.4455 -25.77,-16.4182 l 41.754,-6.1015 -6.101,-15.7735 -7.727,1.1328 c 0.406,0.7617 0.66,1.4571 0.758,2.1094 0.16,1.0938 -0.102,1.8359 -0.789,2.2383 -0.692,0.3906 -2.125,0.75 -4.313,1.0625 l -48.242,7.0625" /><path
         id="path90"
         style="fill:#ffffff;fill-opacity:1;fill-rule:nonzero;stroke:none"
         d="m 471.078,107.523 c -1.297,-12.4214 -1.562,-21.2886 -0.785,-26.6011 0.781,-5.3203 3.391,-8.211 7.832,-8.6719 3.809,-0.3984 6.602,1.418 8.383,5.4492 1.777,4.0156 3.402,13.086 4.879,27.1798 1.402,13.379 1.609,22.402 0.644,27.078 -0.961,4.68 -3.476,7.227 -7.527,7.648 -3.621,0.379 -6.406,-1.496 -8.367,-5.644 -1.961,-4.133 -3.653,-12.949 -5.059,-26.438 z m -24.601,2.688 c 1.343,12.918 5.597,22.402 12.742,28.445 7.152,6.055 15.883,8.547 26.179,7.461 10.012,-1.043 17.961,-5.234 23.836,-12.566 5.868,-7.336 8.137,-17.356 6.817,-30.039 -1.5,-14.3167 -5.781,-24.5042 -12.86,-30.5472 -7.074,-6.0468 -15.785,-8.5273 -26.136,-7.4414 -7.325,0.7696 -13.575,3.2422 -18.739,7.4024 -5.168,4.1797 -8.668,9.207 -10.5,15.0976 -1.824,5.8985 -2.273,13.2816 -1.339,22.1876" /><path
         id="path92"
         style="fill:#ffffff;fill-opacity:1;fill-rule:nonzero;stroke:none"
         d="m 550.461,100.297 c -0.856,-12.4611 -0.805,-21.3282 0.16,-26.6095 0.973,-5.2852 3.68,-8.0781 8.145,-8.3906 3.816,-0.2617 6.543,1.6523 8.175,5.7344 1.633,4.0898 2.938,13.2031 3.911,27.3515 0.921,13.4102 0.812,22.4412 -0.321,27.0822 -1.136,4.648 -3.734,7.098 -7.797,7.39 -3.629,0.247 -6.343,-1.738 -8.16,-5.945 -1.816,-4.211 -3.187,-13.086 -4.113,-26.613 z m -24.684,1.808 c 0.895,12.969 4.797,22.598 11.727,28.895 6.93,6.301 15.562,9.094 25.902,8.379 10.035,-0.684 18.121,-4.598 24.254,-11.699 6.133,-7.129 8.762,-17.059 7.887,-29.7737 -0.981,-14.375 -4.906,-24.7071 -11.762,-30.9961 -6.851,-6.2891 -15.472,-9.0743 -25.859,-8.3594 -7.352,0.4961 -13.68,2.7422 -18.988,6.7187 -5.317,3.9922 -8.981,8.8868 -11.024,14.7149 -2.035,5.8203 -2.746,13.2031 -2.137,22.1206" /><path
         id="path94"
         style="fill:#ffffff;fill-opacity:1;fill-rule:nonzero;stroke:none"
         d="m 630.746,80.6797 c -0.254,-6.9141 0.449,-11.9336 2.106,-15.0391 1.664,-3.1172 4.375,-4.7461 8.156,-4.8828 3.285,-0.1172 5.722,0.9844 7.308,3.3203 1.582,2.3125 2.489,6.8047 2.731,13.4453 0.316,8.8672 -0.371,14.6602 -2.067,17.3555 -1.699,2.6953 -4.238,4.1016 -7.628,4.2188 -2.258,0.0859 -4.219,-0.4805 -5.883,-1.6914 -1.66,-1.211 -2.813,-2.8321 -3.453,-4.8633 -0.637,-2.0313 -1.063,-5.9844 -1.27,-11.8633 z m 2.141,22.5783 c 4.277,1.66 8.847,2.39 13.711,2.215 8.09,-0.293 15.035,-2.637 20.824,-7.0589 5.781,-4.4141 8.531,-10.5977 8.246,-18.5469 -0.313,-8.7188 -4.063,-15.2344 -11.238,-19.5703 -7.188,-4.3438 -14.973,-6.3555 -23.367,-6.0547 -9.758,0.3516 -17.938,3.6055 -24.52,9.7656 -6.582,6.1445 -9.68,14.6992 -9.281,25.6445 0.293,8.1055 2.289,15.7737 5.984,23.0197 3.695,7.254 9.449,12.832 17.258,16.746 7.801,3.906 16.101,5.703 24.883,5.391 5.691,-0.204 10.418,-1.278 14.179,-3.192 3.77,-1.926 5.602,-4.172 5.508,-6.75 -0.058,-1.687 -0.937,-3.203 -2.633,-4.539 -1.695,-1.348 -3.742,-1.973 -6.148,-1.887 -3.188,0.11 -6.266,1.993 -9.227,5.637 -2.121,2.539 -4.824,3.856 -8.113,3.973 -4.219,0.156 -7.668,-1.824 -10.344,-5.965 -2.687,-4.141 -4.589,-10.41 -5.722,-18.828" /><path
         id="path96"
         style="fill:#ffffff;fill-opacity:1;fill-rule:nonzero;stroke:none"
         d="m 683.969,70.3555 0.164,15.5664 43.519,-0.4492 -0.156,-15.5547 -43.527,0.4375" /><path
         id="path98"
         style="fill:#ffffff;fill-opacity:1;fill-rule:nonzero;stroke:none"
         d="m 739.641,54.1367 -0.086,5.4688 c 26.215,19.2773 39.199,36.8242 38.957,52.6445 -0.071,4.492 -1.328,8.066 -3.778,10.723 -2.437,2.656 -5.679,3.945 -9.707,3.879 -3.289,-0.039 -6.086,-0.997 -8.39,-2.864 -2.297,-1.863 -3.434,-3.972 -3.395,-6.367 0.043,-2.801 0.992,-5.242 2.836,-7.332 0.399,-0.449 0.602,-0.801 0.602,-1.027 0.008,-0.43 -0.571,-0.821 -1.746,-1.18 -0.778,-0.246 -2.754,-0.93 -5.934,-2.051 -3.078,-1.125 -4.984,-1.699 -5.723,-1.699 -0.882,-0.012 -1.906,1.035 -3.066,3.145 -1.168,2.117 -1.758,4.402 -1.797,6.863 -0.09,5.617 2.969,10.246 9.176,13.918 6.203,3.68 13.918,5.574 23.148,5.722 9.082,0.145 16.735,-1.671 22.953,-5.441 6.219,-3.758 9.379,-8.758 9.477,-14.98 0.059,-3.692 -0.926,-7.286 -2.965,-10.762 -2.027,-3.4962 -6.945,-8.8947 -14.734,-16.2306 -7.797,-7.3242 -15.403,-14.1016 -22.817,-20.3203 l 42.196,0.6523 -3.5,-16.5312 -7.809,-0.1289 c 0.285,0.8125 0.422,1.543 0.406,2.1992 -0.015,1.1133 -0.39,1.8047 -1.136,2.0781 -0.735,0.2852 -2.207,0.4024 -4.418,0.3711 l -48.75,-0.75" /><path
         id="path100"
         style="fill:#ffffff;fill-opacity:1;fill-rule:nonzero;stroke:none"
         d="m 840.273,96.1094 c 0.59,-12.4727 1.68,-21.2813 3.25,-26.3985 1.571,-5.1445 4.586,-7.6054 9.051,-7.3906 3.828,0.1758 6.317,2.3906 7.465,6.6406 1.149,4.2383 1.383,13.4571 0.707,27.6172 -0.641,13.4179 -1.793,22.3829 -3.457,26.8559 -1.664,4.48 -4.531,6.621 -8.601,6.433 -3.633,-0.176 -6.098,-2.461 -7.415,-6.855 -1.316,-4.383 -1.648,-13.36 -1,-26.9026 z m -24.73,-1.0547 c -0.617,12.9573 2.152,22.9763 8.305,30.0393 6.148,7.07 14.398,10.847 24.746,11.347 10.054,0.477 18.535,-2.472 25.461,-8.828 6.906,-6.367 10.672,-15.929 11.277,-28.6521 C 886.02,84.5664 883.32,73.8438 877.25,66.8125 871.168,59.7695 862.926,56 852.527,55.5117 c -7.355,-0.3594 -13.898,1.1328 -19.64,4.4727 -5.735,3.3515 -9.953,7.7929 -12.653,13.332 -2.695,5.5352 -4.261,12.7813 -4.691,21.7383" /><path
         id="path102"
         style="fill:#ffffff;fill-opacity:1;fill-rule:nonzero;stroke:none"
         d="m 901.602,59.7891 -0.45,5.4609 c 24.864,20.9844 36.645,39.375 35.34,55.145 -0.371,4.472 -1.867,7.96 -4.484,10.449 -2.617,2.472 -5.934,3.547 -9.945,3.222 -3.286,-0.273 -6.012,-1.425 -8.18,-3.425 -2.172,-2.024 -3.16,-4.211 -2.965,-6.582 0.234,-2.793 1.34,-5.176 3.32,-7.129 0.43,-0.43 0.657,-0.762 0.672,-0.989 0.035,-0.418 -0.519,-0.847 -1.668,-1.296 -0.758,-0.286 -2.683,-1.106 -5.781,-2.442 -2.992,-1.328 -4.859,-2.023 -5.598,-2.082 -0.871,-0.066 -1.965,0.91 -3.269,2.942 -1.297,2.031 -2.051,4.265 -2.254,6.726 -0.465,5.586 2.277,10.422 8.223,14.504 5.945,4.07 13.511,6.504 22.718,7.266 9.047,0.742 16.805,-0.559 23.262,-3.887 6.465,-3.352 9.949,-8.125 10.465,-14.328 0.305,-3.672 -0.445,-7.313 -2.235,-10.938 -1.796,-3.621 -6.335,-9.343 -13.617,-17.1755 -7.289,-7.8321 -14.418,-15.0977 -21.402,-21.8164 l 42.062,3.4843 -2.386,-16.7265 -7.782,-0.6367 c 0.227,0.8203 0.313,1.5546 0.258,2.207 -0.09,1.1133 -0.515,1.7891 -1.273,2.0117 -0.754,0.2344 -2.235,0.2461 -4.442,0.0703 l -48.589,-4.0351" /><path
         id="path104"
         style="fill:#ffffff;fill-opacity:1;fill-rule:nonzero;stroke:none"
         d="m 991.477,67.8945 -0.778,6.3477 3.653,0.4414 c 3.015,0.3711 5.234,1.0547 6.648,2.0391 1.41,0.9882 1.93,2.9882 1.56,5.9961 l -5.357,43.4762 c -0.508,4.121 -1.535,6.582 -3.066,7.414 -1.543,0.809 -5.598,0.809 -12.172,0 l -0.758,6.121 c 12.762,2.004 22.543,5.547 29.333,10.637 l 7.75,0.957 8.06,-65.3123 c 0.32,-2.6367 1.1,-4.4336 2.33,-5.4101 1.24,-0.9688 3.68,-1.2227 7.34,-0.7735 l 3.65,0.4492 0.78,-6.3476 -48.973,-6.0352" /><g
         id="g106"><g
           clip-path="url(#clipPath112)"
           id="g108"><path
             id="path128"
             style="fill:url(#linearGradient126);fill-opacity:1;fill-rule:nonzero;stroke:none"
             d="m 2218.93,121.996 v 190.391 h 268.14 l -98.08,-95.157 98.07,-95.234 h -268.13" /></g></g><g
         id="g130"><g
           clip-path="url(#clipPath136)"
           id="g132"><g
             clip-path="url(#clipPath142)"
             id="g138"><path
               id="path158"
               style="fill:url(#linearGradient156);fill-opacity:1;fill-rule:nonzero;stroke:none"
               d="m 2216,120 v 195 h 275 v -3 h -1 v -1 h -1 v -1 h -2 v -1 h -1 v -1 h -1 v -1 h -1 v -1 h -1 v -1 h -1 v -1 h -1 v -1 h -1 v -1 h -1 v -1 h -1 v -1 h -1 v -1 h -1 v -1 h -1 v -1 h -1 v -1 h -1 v -1 h -1 v -1 h -1 v -1 h -1 v -1 h -1 v -1 h -1 v -1 h -1 v -1 h -1 v -1 h -1 v -1 h -1 v -1 h -1 v -1 h -1 v -1 h -1 v -1 h -1 v -1 h -1 v -1 h -1 v -1 h -1 v -1 h -1 v -1 h -1 v -1 h -2 v -1 h -1 v -1 h -1 v -1 h -1 v -1 h -1 v -1 h -1 v -1 h -1 v -1 h -1 v -1 h -1 v -1 h -1 v -1 h -1 v -1 h -1 v -1 h -1 v -1 h -1 v -1 h -1 v -1 h -1 v -1 h -1 v -1 h -1 v -1 h -1 v -1 h -1 v -1 h -1 v -1 h -1 v -1 h -1 v -1 h -1 v -1 h -1 v -1 h -1 v -1 h -1 v -1 h -1 v -1 h -1 v -1 h -1 v -1 h -1 v -1 h -1 v -1 h -1 v -1 h -2 v -1 h -1 v -1 h -1 v -1 h -1 v -1 h -1 v -1 h -1 v -1 h -1 v -1 h -1 v -1 h -1 v -1 h -1 v -1 h -1 v -1 h -1 v -1 h -1 v -1 h -1 v -1 h -1 v -1 h -1 v -1 h -1 v -1 h -1 v -1 h -1 v -1 h -1 v -1 h -1 v -1 h -1 v -1 h -1 v -1 h -1 v -1 h -1 v -1 h -1 v -1 h -1 v -2 h 1 v -1 h 1 v -1 h 1 v -1 h 1 v -1 h 1 v -1 h 1 v -1 h 1 v -1 h 1 v -1 h 1 v -1 h 1 v -1 h 1 v -1 h 2 v -1 h 1 v -1 h 1 v -1 h 1 v -1 h 1 v -1 h 1 v -1 h 1 v -1 h 1 v -1 h 1 v -1 h 1 v -1 h 1 v -1 h 1 v -1 h 1 v -1 h 1 v -1 h 1 v -1 h 1 v -1 h 1 v -1 h 1 v -1 h 1 v -1 h 1 v -1 h 1 v -1 h 1 v -1 h 1 v -1 h 1 v -1 h 1 v -1 h 1 v -1 h 1 v -1 h 1 v -1 h 1 v -1 h 1 v -1 h 1 v -1 h 1 v -1 h 1 v -1 h 1 v -1 h 2 v -1 h 1 v -1 h 1 v -1 h 1 v -1 h 1 v -1 h 1 v -1 h 1 v -1 h 1 v -1 h 1 v -1 h 1 v -1 h 1 v -1 h 1 v -1 h 1 v -1 h 1 v -1 h 1 v -1 h 1 v -1 h 1 v -1 h 1 v -1 h 1 v -1 h 1 v -1 h 1 v -1 h 1 v -1 h 1 v -1 h 1 v -1 h 1 v -1 h 1 v -1 h 1 v -1 h 1 v -1 h 1 v -1 h 1 v -1 h 1 v -1 h 1 v -1 h 1 v -1 h 1 v -1 h 2 v -1 h 1 v -1 h 1 v -1 h 1 v -1 h 1 v -1 h 1 v -1 h 1 v -1 h 1 v -1 h 1 v -1 h 1 v -1 h 1 v -1 h 1 v -1 h 1 v -1 h 1 v -1 h 1 v -1 h 1 v -2 z m 5,5 v -1 h 260 v 1 h -1 v 1 h -1 v 1 h -2 v 1 h -1 v 1 h -1 v 1 h -1 v 1 h -1 v 1 h -1 v 1 h -1 v 1 h -1 v 1 h -1 v 1 h -1 v 1 h -1 v 1 h -1 v 1 h -1 v 1 h -1 v 1 h -1 v 1 h -1 v 1 h -1 v 1 h -1 v 1 h -1 v 1 h -1 v 1 h -1 v 1 h -1 v 1 h -1 v 1 h -1 v 1 h -1 v 1 h -1 v 1 h -1 v 1 h -1 v 1 h -1 v 1 h -1 v 1 h -1 v 1 h -1 v 1 h -1 v 1 h -1 v 1 h -2 v 1 h -1 v 1 h -1 v 1 h -1 v 1 h -1 v 1 h -1 v 1 h -1 v 1 h -1 v 1 h -1 v 1 h -1 v 1 h -1 v 1 h -1 v 1 h -1 v 1 h -1 v 1 h -1 v 1 h -1 v 1 h -1 v 1 h -1 v 1 h -1 v 1 h -1 v 1 h -1 v 1 h -1 v 1 h -1 v 1 h -1 v 1 h -1 v 1 h -1 v 1 h -1 v 1 h -1 v 1 h -1 v 1 h -1 v 1 h -1 v 1 h -1 v 1 h -1 v 1 h -2 v 1 h -1 v 1 h -1 v 1 h -1 v 1 h -1 v 1 h -1 v 1 h -1 v 1 h -1 v 1 h -1 v 1 h -1 v 1 h -1 v 1 h -1 v 1 h -1 v 1 h -1 v 1 h -1 v 1 h -1 v 1 h -1 v 1 h -1 v 1 h -1 v 1 h -1 v 1 h -1 v 1 h -1 v 1 h -1 v 3 h 1 v 1 h 1 v 1 h 1 v 1 h 2 v 1 h 1 v 1 h 1 v 1 h 1 v 1 h 1 v 1 h 1 v 1 h 1 v 1 h 1 v 1 h 1 v 1 h 1 v 1 h 1 v 1 h 1 v 1 h 1 v 1 h 1 v 1 h 1 v 1 h 1 v 1 h 1 v 1 h 1 v 1 h 1 v 1 h 1 v 1 h 1 v 1 h 1 v 1 h 1 v 1 h 1 v 1 h 1 v 1 h 1 v 1 h 1 v 1 h 1 v 1 h 1 v 1 h 1 v 1 h 1 v 1 h 1 v 1 h 1 v 1 h 2 v 1 h 1 v 1 h 1 v 1 h 1 v 1 h 1 v 1 h 1 v 1 h 1 v 1 h 1 v 1 h 1 v 1 h 1 v 1 h 1 v 1 h 1 v 1 h 1 v 1 h 1 v 1 h 1 v 1 h 1 v 1 h 1 v 1 h 1 v 1 h 1 v 1 h 1 v 1 h 1 v 1 h 1 v 1 h 1 v 1 h 1 v 1 h 1 v 1 h 1 v 1 h 1 v 1 h 1 v 1 h 1 v 1 h 1 v 1 h 1 v 1 h 1 v 1 h 2 v 1 h 1 v 1 h 1 v 1 h 1 v 1 h 1 v 1 h 1 v 1 h 1 v 1 h 1 v 1 h 1 v 1 h 1 v 1 h 1 v 1 h 1 v 1 h 1 v 1 h 1 v 1 h 1 v 1 h 1 v 1 h 1 v 1 h 1 v 1 h 1 v 1 h 1 v 1 h 1 v 1 h 1 v 1 h 1 v 1 H 2221 V 125" /></g></g></g><path
         id="path160"
         style="fill:#231f20;fill-opacity:1;fill-rule:nonzero;stroke:none"
         d="m 2216.83,221.859 v 92.364 l 67.13,-67.676 -47.01,-40.84 -20.12,16.152" /><g
         id="g162"><g
           clip-path="url(#clipPath168)"
           id="g164"><path
             id="path186"
             style="fill:url(#linearGradient184);fill-opacity:1;fill-rule:nonzero;stroke:none"
             d="m 1730.18,0.351563 c -182.56,0 -354.48,16.976537 -510.97,50.492237 l -5.2,0.6445 V 246.566 l 6.72,-0.957 c 155.49,-33.359 326.89,-50.293 509.45,-50.293 309.88,0 547.26,49.778 549.63,50.293 l 4.41,0.938 V 51.4492 l -2.88,-0.6054 C 2278.96,50.3281 2041.78,0.351563 1730.18,0.351563" /></g></g><path
         id="path188"
         style="fill:#ffffff;fill-opacity:1;fill-rule:nonzero;stroke:none"
         d="m 540.234,297.086 h -90.515 v 178.855 h -70.942 v 61.797 c 47.871,0.871 82.688,17.407 92.7,70.5 h 68.757 V 297.086" /><path
         id="path190"
         style="fill:#ffffff;fill-opacity:1;fill-rule:nonzero;stroke:none"
         d="M 610.73,603.887 H 807.434 V 529.906 H 674.27 l -10.012,-46.129 c 19.144,13.926 40.469,16.536 63.535,16.536 58.75,0 104.441,-35.692 104.441,-97.047 0,-84.852 -67.449,-112.703 -137.511,-112.703 -67.024,0 -110.539,30.019 -127.946,86.589 l 90.953,9.141 c 0,-0.867 0.868,-2.176 0.868,-3.047 5.226,-16.094 22.632,-24.805 39.168,-24.805 26.547,0 43.953,17.844 43.953,40.469 0,25.246 -12.184,44.395 -39.602,44.395 -13.488,0 -29.594,-3.485 -36.554,-16.973 l -85.293,3.047 30.46,174.508" /><path
         id="path192"
         style="fill:#ffffff;fill-opacity:1;fill-rule:nonzero;stroke:none"
         d="m 936.859,502.461 h -39.476 v -79.117 c 0,-12.149 0.531,-20.321 1.597,-24.531 1.063,-4.208 3.329,-7.598 6.79,-10.145 3.464,-2.559 7.164,-3.84 11.109,-3.84 7.672,0 14.332,4.367 19.98,13.106 l 5.114,-3.036 c -3.305,-7.031 -8.18,-12.335 -14.625,-15.91 -6.45,-3.562 -12.973,-5.351 -19.578,-5.351 -7.672,0 -14.411,2.265 -20.215,6.797 -5.813,4.519 -9.434,9.824 -10.871,15.898 -1.442,6.074 -2.157,16.731 -2.157,31.965 v 74.164 h -19.019 v 7.352 c 8.734,0.21 16.566,3.886 23.492,11.027 6.93,7.137 11.348,17.152 13.266,30.047 h 5.117 v -41.074 h 39.476 v -7.352" /><path
         id="path194"
         style="fill:#ffffff;fill-opacity:1;fill-rule:nonzero;stroke:none"
         d="m 995.836,488.238 c 6.394,8.95 13.554,15.664 21.494,20.133 7.93,4.481 16.64,6.715 26.13,6.715 10.76,0 19.68,-2.234 26.77,-6.715 7.08,-4.469 11.69,-9.988 13.83,-16.543 2.13,-6.551 3.19,-17.176 3.19,-31.883 v -36.121 c 0,-15.344 0.29,-24.668 0.88,-27.969 0.59,-3.3 2.32,-5.734 5.2,-7.277 2.87,-1.543 8.2,-2.312 15.98,-2.312 v -7.356 h -67.61 v 7.356 h 3.04 c 7.77,0 12.81,1.121 15.1,3.355 2.29,2.238 3.62,4.875 4,7.914 0.37,3.035 0.56,11.793 0.56,26.289 v 39.317 c 0,10.871 -0.64,18.914 -1.92,24.132 -1.28,5.223 -4.29,9.54 -9.03,12.95 -4.74,3.41 -10.68,5.113 -17.82,5.113 -8.31,0 -15.77,-2.422 -22.38,-7.27 -6.6,-4.847 -12.41,-12.125 -17.414,-21.816 v -52.426 c 0,-14.707 0.238,-23.761 0.719,-27.168 0.476,-3.41 2.097,-5.996 4.875,-7.754 2.76,-1.757 7.83,-2.636 15.18,-2.636 v -7.356 h -66.489 v 7.356 h 3.359 c 7.672,0 12.649,1.093 14.942,3.281 2.293,2.176 3.625,4.793 3.996,7.832 0.371,3.027 0.562,11.844 0.562,26.445 v 130.418 c 0,13.211 -1.257,21.578 -3.757,25.094 -2.504,3.516 -8.5,5.273 -17.985,5.273 v 7.352 c 16.516,0 30.262,2.238 41.239,6.715 h 3.359 V 488.238" /><path
         id="path196"
         style="fill:#ffffff;fill-opacity:1;fill-rule:nonzero;stroke:none"
         d="m 1414.27,81.0117 0.93,6.3281 3.64,-0.539 c 3.02,-0.4375 5.33,-0.3711 6.96,0.207 1.61,0.5742 2.65,2.3711 3.09,5.3711 l 6.34,43.3401 c 0.6,4.109 0.27,6.758 -1,7.949 -1.26,1.199 -5.18,2.273 -11.73,3.23 l 0.89,6.094 c 12.84,-1.445 23.21,-0.625 31.11,2.5 l 7.72,-1.133 -9.52,-65.1051 c -0.39,-2.6367 -0.11,-4.5703 0.82,-5.8398 0.92,-1.25 3.22,-2.1485 6.86,-2.6758 l 3.64,-0.5469 -0.92,-6.3203 -48.83,7.1406" /><path
         id="path198"
         style="fill:#ffffff;fill-opacity:1;fill-rule:nonzero;stroke:none"
         d="m 1516.82,120.551 c -0.7,-6.668 -0.4,-11.473 0.87,-14.363 1.27,-2.903 3.7,-4.532 7.26,-4.895 3.52,-0.379 6.2,0.578 8.07,2.824 1.87,2.266 3.12,6.446 3.76,12.567 0.91,8.632 0.61,14.523 -0.85,17.695 -1.48,3.176 -3.92,4.934 -7.34,5.293 -1.95,0.207 -3.8,-0.137 -5.58,-1.016 -1.77,-0.867 -3.07,-2.422 -3.89,-4.636 -0.83,-2.207 -1.59,-6.7 -2.3,-13.469 z m 16.3,-24.0041 c -2.01,-0.8008 -4.11,-1.3281 -6.31,-1.6016 -2.2,-0.2734 -4.52,-0.2734 -6.97,-0.0195 -8.3,0.8711 -15.18,3.8398 -20.65,8.9372 -5.46,5.098 -7.79,11.434 -7,19.043 0.92,8.778 5.1,15.086 12.56,18.907 7.47,3.816 15.53,5.273 24.23,4.363 9.91,-1.035 17.82,-4.824 23.73,-11.375 5.9,-6.555 8.26,-15.547 7.07,-27.012 -1.45,-13.7617 -6.84,-24.3867 -16.19,-31.8867 -9.35,-7.5078 -20.87,-10.5468 -34.54,-9.1093 -6.64,0.6914 -11.58,2.0976 -14.8,4.2461 -3.24,2.1289 -4.72,4.4843 -4.46,7.0312 0.19,1.7305 1.17,3.1055 2.96,4.1602 1.79,1.0468 3.8,1.4453 6.05,1.2109 1.9,-0.1836 3.49,-0.7226 4.75,-1.582 1.27,-0.8672 2.71,-2.3711 4.31,-4.5117 1.91,-2.5586 4.45,-4.0039 7.62,-4.336 4.3,-0.4492 7.82,1.0469 10.57,4.4922 2.77,3.4375 5.11,9.7852 7.07,19.043" /><path
         id="path200"
         style="fill:#ffffff;fill-opacity:1;fill-rule:nonzero;stroke:none"
         d="m 1595.75,113.461 c -0.47,-6.699 -0.01,-11.492 1.38,-14.3243 1.38,-2.8515 3.85,-4.4062 7.42,-4.6484 3.54,-0.2461 6.19,0.789 7.97,3.125 1.79,2.3125 2.89,6.5427 3.31,12.6757 0.6,8.672 0.11,14.539 -1.47,17.664 -1.6,3.106 -4.11,4.785 -7.52,5.02 -1.97,0.136 -3.82,-0.262 -5.56,-1.211 -1.73,-0.938 -2.97,-2.528 -3.72,-4.766 -0.74,-2.246 -1.35,-6.738 -1.81,-13.535 z m 17.14,-23.418 c -1.98,-0.8672 -4.06,-1.4727 -6.25,-1.8242 -2.2,-0.3516 -4.51,-0.4415 -6.96,-0.2735 -8.33,0.5742 -15.31,3.3008 -20.96,8.2031 -5.64,4.8906 -8.2,11.1526 -7.68,18.7896 0.6,8.808 4.58,15.242 11.89,19.324 7.31,4.082 15.33,5.832 24.05,5.234 9.95,-0.683 17.98,-4.187 24.12,-10.535 6.14,-6.328 8.81,-15.234 8.02,-26.738 -0.95,-13.8011 -5.96,-24.6097 -15.03,-32.4417 -9.08,-7.8243 -20.48,-11.2696 -34.19,-10.3321 -6.66,0.4571 -11.65,1.6992 -14.96,3.711 -3.3,2.0195 -4.87,4.3164 -4.7,6.8828 0.13,1.7187 1.06,3.1445 2.81,4.2578 1.75,1.1055 3.76,1.582 6.01,1.4375 1.91,-0.1367 3.51,-0.6172 4.81,-1.4375 1.29,-0.8203 2.78,-2.2656 4.46,-4.3438 1.99,-2.4922 4.58,-3.8398 7.76,-4.0625 4.32,-0.2929 7.79,1.3282 10.41,4.8633 2.64,3.5352 4.76,9.9688 6.39,19.2852" /><path
         id="path202"
         style="fill:#ffffff;fill-opacity:1;fill-rule:nonzero;stroke:none"
         d="m 1657.18,57.0547 0.23,6.3984 3.68,-0.1367 c 3.04,-0.1094 5.35,0.2149 6.89,0.9649 1.55,0.7539 2.38,2.6367 2.49,5.6757 l 1.57,43.77 c 0.15,4.16 -0.47,6.746 -1.85,7.8 -1.39,1.047 -5.4,1.68 -12.03,1.926 l 0.23,6.16 c 12.92,-0.047 23.13,1.914 30.65,5.871 l 7.81,-0.273 -2.38,-65.7618 c -0.09,-2.6562 0.39,-4.5625 1.46,-5.7148 1.06,-1.1524 3.44,-1.7969 7.12,-1.9219 l 3.67,-0.1367 -0.23,-6.3985 -49.31,1.7774" /><path
         id="path204"
         style="fill:#ffffff;fill-opacity:1;fill-rule:nonzero;stroke:none"
         d="m 1726.01,70.5703 0.15,15.5664 43.53,-0.4492 -0.16,-15.5547 -43.52,0.4375" /><path
         id="path206"
         style="fill:#ffffff;fill-opacity:1;fill-rule:nonzero;stroke:none"
         d="m 1781.67,54.3516 -0.08,5.457 c 26.22,19.2891 39.2,36.8281 38.96,52.6564 -0.07,4.504 -1.33,8.078 -3.77,10.723 -2.45,2.648 -5.7,3.937 -9.71,3.878 -3.29,-0.05 -6.09,-1.007 -8.4,-2.863 -2.29,-1.855 -3.44,-3.973 -3.4,-6.355 0.05,-2.805 1,-5.254 2.85,-7.344 0.4,-0.449 0.6,-0.793 0.6,-1.016 0.01,-0.429 -0.58,-0.832 -1.76,-1.191 -0.78,-0.246 -2.75,-0.918 -5.92,-2.051 -3.08,-1.125 -4.99,-1.691 -5.73,-1.699 -0.88,-0.012 -1.9,1.035 -3.06,3.152 -1.17,2.11 -1.76,4.406 -1.8,6.856 -0.09,5.617 2.97,10.254 9.18,13.918 6.2,3.672 13.91,5.574 23.14,5.711 9.09,0.148 16.73,-1.668 22.96,-5.438 6.22,-3.75 9.38,-8.75 9.48,-14.973 0.05,-3.691 -0.93,-7.285 -2.96,-10.769 -2.04,-3.4962 -6.96,-8.8985 -14.74,-16.211 -7.8,-7.3242 -15.41,-14.1133 -22.82,-20.3321 l 42.19,0.6446 -3.49,-16.5235 -7.81,-0.1289 c 0.28,0.8125 0.42,1.543 0.41,2.1992 -0.02,1.1133 -0.39,1.8047 -1.15,2.0899 -0.73,0.2734 -2.2,0.3906 -4.42,0.3594 l -48.75,-0.75" /><path
         id="path208"
         style="fill:#ffffff;fill-opacity:1;fill-rule:nonzero;stroke:none"
         d="m 1882.31,96.3242 c 0.59,-12.4726 1.68,-21.2812 3.26,-26.4062 1.57,-5.1485 4.59,-7.5977 9.05,-7.3946 3.82,0.1875 6.31,2.4024 7.46,6.6524 1.14,4.2461 1.38,13.457 0.7,27.6055 -0.63,13.4297 -1.78,22.3947 -3.45,26.8667 -1.66,4.473 -4.54,6.622 -8.6,6.426 -3.63,-0.176 -6.1,-2.461 -7.42,-6.836 -1.32,-4.394 -1.65,-13.359 -1,-26.9138 z m -24.72,-1.0664 c -0.62,12.9692 2.15,22.9882 8.3,30.0582 6.15,7.051 14.39,10.832 24.74,11.329 10.05,0.48 18.54,-2.461 25.46,-8.817 6.92,-6.367 10.68,-15.918 11.28,-28.6639 0.7,-14.3828 -2.01,-25.1055 -8.08,-32.1485 -6.08,-7.039 -14.32,-10.8008 -24.72,-11.289 -7.35,-0.3594 -13.9,1.1328 -19.64,4.4726 -5.74,3.3399 -9.96,7.7852 -12.65,13.3321 -2.7,5.5468 -4.26,12.7812 -4.69,21.7265" /><path
         id="path210"
         style="fill:#ffffff;fill-opacity:1;fill-rule:nonzero;stroke:none"
         d="m 1943.64,59.9961 -0.45,5.4687 c 24.87,20.9844 36.65,39.3632 35.35,55.1442 -0.38,4.473 -1.87,7.961 -4.49,10.442 -2.62,2.48 -5.93,3.554 -9.95,3.222 -3.28,-0.273 -6,-1.425 -8.17,-3.429 -2.18,-2 -3.17,-4.199 -2.97,-6.563 0.23,-2.801 1.34,-5.176 3.32,-7.136 0.43,-0.43 0.65,-0.754 0.67,-0.977 0.04,-0.43 -0.51,-0.859 -1.67,-1.301 -0.76,-0.293 -2.68,-1.113 -5.78,-2.441 -2.99,-1.336 -4.85,-2.02 -5.59,-2.09 -0.88,-0.066 -1.97,0.91 -3.28,2.941 -1.29,2.032 -2.05,4.278 -2.25,6.727 -0.46,5.586 2.28,10.41 8.22,14.492 5.95,4.074 13.52,6.504 22.72,7.258 9.05,0.75 16.8,-0.539 23.27,-3.879 6.46,-3.348 9.94,-8.105 10.46,-14.316 0.3,-3.672 -0.45,-7.313 -2.23,-10.938 -1.8,-3.621 -6.34,-9.344 -13.62,-17.1757 -7.29,-7.8242 -14.43,-15.0976 -21.4,-21.8086 l 42.05,3.4766 -2.38,-16.7188 -7.78,-0.6445 c 0.23,0.8125 0.32,1.5547 0.26,2.207 -0.1,1.1055 -0.52,1.7774 -1.27,2.0118 -0.76,0.2265 -2.24,0.2343 -4.44,0.0585 l -48.6,-4.0312" /><path
         id="path212"
         style="fill:#ffffff;fill-opacity:1;fill-rule:nonzero;stroke:none"
         d="m 2033.52,68.1016 -0.78,6.3476 3.66,0.4492 c 3,0.3711 5.22,1.0547 6.64,2.0391 1.41,0.9961 1.93,2.9883 1.56,5.9961 l -5.36,43.4764 c -0.51,4.121 -1.53,6.582 -3.07,7.403 -1.53,0.812 -5.58,0.812 -12.17,0.011 l -0.76,6.114 c 12.77,2 22.55,5.554 29.35,10.644 l 7.74,0.957 8.06,-65.3124 c 0.33,-2.6289 1.1,-4.4336 2.33,-5.4102 1.24,-0.9687 3.67,-1.2226 7.34,-0.7734 l 3.65,0.4492 0.79,-6.3555 -48.98,-6.0351" /></g></g></svg>