<?xml version="1.0" encoding="UTF-8" standalone="no"?>
<svg
	xmlns:dc="http://purl.org/dc/elements/1.1/"
	xmlns:cc="http://creativecommons.org/ns#"
	xmlns:rdf="http://www.w3.org/1999/02/22-rdf-syntax-ns#"
	xmlns:svg="http://www.w3.org/2000/svg"
	xmlns="http://www.w3.org/2000/svg"
	viewBox="0 0 731.11249 174.95"
	height="174.95"
	width="731.11249"
	xml:space="preserve"
	version="1.1"
	id="svg2">
	<metadata id="metadata8">
		<rdf:RDF>
			<cc:Work rdf:about="">
				<dc:format>image/svg+xml</dc:format><dc:type rdf:resource="http://purl.org/dc/dcmitype/StillImage"/>
			</cc:Work>
		</rdf:RDF>
	</metadata>
	<defs id="defs6">
		<clipPath id="clipPath18" clipPathUnits="userSpaceOnUse">
			<path id="path20" d="M 0,1399.57 0,0 l 5848.85,0 0,1399.57 -5848.85,0 z"/>
		</clipPath>
	</defs>
	<g transform="matrix(1.25,0,0,-1.25,0,174.95)" id="g10">
		<g transform="scale(0.1,0.1)" id="g12">
			<g id="g14">
				<g clip-path="url(#clipPath18)" id="g16"><path
					id="path22"
					style="fill:#5b6364;fill-opacity:1;fill-rule:nonzero;stroke:none"
					d="m 1937.13,846.406 -222.27,0 0,-102.664 c 0,-33.488 0.83,-55.414 2.51,-65.769 1.67,-10.364 5.91,-18.051 12.71,-23.078 6.8,-5.024 19.73,-7.532 38.78,-7.532 l 10.98,0 0,-14.445 -191.51,0 0,14.445 10.99,0 c 18.21,0 30.82,2.301 37.83,6.903 7.01,4.605 11.51,11.773 13.5,21.507 1.99,9.735 2.99,32.383 2.99,67.969 l 0,208.778 c 0,33.906 -1,55.78 -2.99,65.61 -1.99,9.84 -6.17,16.64 -12.56,20.41 -6.38,3.77 -20.35,5.65 -41.91,5.65 l -7.85,0 0,14.44 191.51,0 0,-14.44 -7.84,0 c -20.73,0 -34.34,-1.73 -40.82,-5.18 -6.49,-3.45 -10.83,-9.89 -13.03,-19.3 -2.19,-9.42 -3.29,-31.823 -3.29,-67.19 l 0,-84.454 222.27,0 0,84.454 c 0,33.906 -0.94,55.78 -2.82,65.61 -1.89,9.84 -6.03,16.64 -12.41,20.41 -6.38,3.77 -20.35,5.65 -41.91,5.65 l -11.3,0 0,14.44 193.71,0 0,-14.44 -6.28,0 c -20.94,0 -34.65,-1.73 -41.13,-5.18 -6.49,-3.45 -10.83,-9.89 -13.03,-19.3 -2.2,-9.42 -3.29,-31.823 -3.29,-67.19 l 0,-208.778 c 0,-33.488 0.78,-55.414 2.35,-65.769 1.57,-10.364 5.8,-18.051 12.71,-23.078 6.91,-5.024 19.89,-7.532 38.93,-7.532 l 9.74,0 0,-14.445 -193.71,0 0,14.445 14.76,0 c 17.99,0 30.5,2.301 37.51,6.903 7.01,4.605 11.46,11.773 13.35,21.507 1.88,9.735 2.82,32.383 2.82,67.969 l 0,102.664"/><path
					id="path24"
					style="fill:#5b6364;fill-opacity:1;fill-rule:nonzero;stroke:none"
					d="m 2205.27,852.684 0,-94.813 c 0,-40.398 0.73,-66.035 2.19,-76.922 1.46,-10.883 5.39,-19.148 11.78,-24.797 6.38,-5.648 18.99,-8.476 37.83,-8.476 33.48,0 58.6,8.578 75.35,25.742 16.74,17.156 25.11,42.902 25.11,77.23 0,35.161 -9.47,61.067 -28.41,77.704 -18.95,16.636 -52.27,24.957 -100,24.957 -7.53,0 -15.48,-0.211 -23.85,-0.625 z m 0,15.382 c 5.23,-0.211 9.62,-0.312 13.18,-0.312 45.21,0 76.08,7.113 92.62,21.348 16.53,14.234 24.8,37.25 24.8,69.066 0,22.184 -3.25,39.352 -9.73,51.492 -6.49,12.14 -16.22,21.5 -29.2,28.1 -12.98,6.59 -35.16,9.88 -66.56,9.88 -8.16,0 -16.53,-0.31 -25.11,-0.94 l 0,-178.634 z m 76.92,-5.964 c 48.34,-3.563 84.23,-15.594 107.68,-36.106 23.43,-20.516 35.16,-46.148 35.16,-76.914 0,-26.797 -7.96,-49.867 -23.86,-69.23 -15.91,-19.36 -36.26,-32.02 -61.06,-37.989 -24.8,-5.961 -58.04,-8.945 -99.68,-8.945 l -167.02,0 0,14.445 16.32,0 c 18.21,0 30.82,2.301 37.83,6.903 7.01,4.605 11.46,11.773 13.35,21.507 1.88,9.735 2.82,32.383 2.82,67.969 l 0,207.207 c 0,34.531 -0.99,56.821 -2.98,66.871 -1.99,10.04 -6.18,16.95 -12.56,20.72 -6.38,3.77 -20.35,5.65 -41.91,5.65 l -8.16,0 0,14.44 70.01,1.89 79.74,2.51 c 116.37,0 174.56,-33.49 174.56,-100.464 0,-27.632 -10,-49.816 -29.99,-66.554 -19.99,-16.75 -50.07,-28.055 -90.25,-33.91"/><path
					id="path26"
					style="fill:#5b6364;fill-opacity:1;fill-rule:nonzero;stroke:none"
					d="m 2817.01,792.719 13.5,0 0,-149.125 -13.5,0 c -3.77,16.953 -10.57,31.914 -20.41,44.894 -37.47,-42.277 -85.29,-63.418 -143.47,-63.418 -61.53,0 -111.82,19.465 -150.86,58.395 -39.03,38.93 -58.55,90.418 -58.55,154.465 0,42.07 9,81.672 27.01,118.828 17.99,37.148 43.11,64.722 75.34,82.722 32.23,18 67.61,27 106.12,27 31.81,0 60.64,-6.54 86.49,-19.62 25.84,-13.08 45.16,-27.58 57.92,-43.48 9,17.79 14.44,36.21 16.33,55.25 l 13.81,0 3.77,-161.364 -13.5,0 c -9.42,57.343 -28.62,97.214 -57.61,119.614 -28.99,22.39 -61.69,33.59 -98.11,33.59 -44.58,0 -80.01,-18.1 -106.27,-54.314 -26.27,-36.211 -39.4,-88.011 -39.4,-155.406 0,-63.836 14.33,-112.758 43.01,-146.766 28.67,-34.015 64.36,-51.019 107.06,-51.019 22.8,0 46.15,5.547 70.01,16.637 23.86,11.093 42.74,29.875 56.67,56.355 13.91,26.473 22.13,52.063 24.64,76.762"/><path
					id="path28"
					style="fill:#83171c;fill-opacity:1;fill-rule:nonzero;stroke:none"
					d="m 3437.43,637.313 0,136.886 15.69,0 c 17.78,-89.168 59.96,-133.746 126.52,-133.746 29.92,0 53.11,8.524 69.54,25.586 16.43,17.055 24.64,36.152 24.64,57.297 0,21.352 -7.22,39.246 -21.66,53.684 -14.44,14.234 -40.81,29.511 -79.11,45.839 -34.12,14.645 -59.86,27.465 -77.24,38.457 -17.37,10.989 -30.92,25.274 -40.65,42.852 -9.74,17.586 -14.6,36.312 -14.6,56.195 0,30.348 10.52,55.617 31.55,75.817 21.04,20.2 47.67,30.3 79.91,30.3 17.99,0 34.95,-2.93 50.85,-8.79 15.9,-5.86 32.23,-18 48.98,-36.42 9.62,11.51 15.07,23.97 16.33,37.36 l 13.81,0 0,-111.45 -13.81,0 c -7.96,32.445 -22.03,57.98 -42.23,76.6 -20.2,18.63 -43.59,27.95 -70.18,27.95 -25.32,0 -43.89,-6.86 -55.72,-20.57 -11.82,-13.71 -17.73,-28.73 -17.73,-45.047 0,-19.679 7.42,-36.32 22.28,-49.918 14.65,-13.812 41.14,-29.308 79.44,-46.465 36.62,-16.328 63.26,-29.464 79.9,-39.406 16.63,-9.937 29.98,-23.699 40.02,-41.281 10.05,-17.578 15.08,-37.883 15.08,-60.906 0,-36.418 -12.15,-66.039 -36.43,-88.844 -24.28,-22.82 -56.72,-34.223 -97.32,-34.223 -46.67,0 -85.61,17.895 -116.79,53.684 -6.9,-9.84 -12.03,-23.652 -15.38,-41.441 l -15.69,0"/><path
					id="path30"
					style="fill:#83171c;fill-opacity:1;fill-rule:nonzero;stroke:none"
					d="m 4083.34,758.184 -3.13,-125.266 -361.67,0 0,14.445 12.56,0 c 18.2,0 30.81,2.301 37.82,6.903 7.01,4.605 11.51,11.773 13.51,21.507 1.98,9.735 2.97,32.383 2.97,67.969 l 0,208.778 c 0,33.906 -0.99,55.78 -2.97,65.61 -2,9.84 -6.19,16.64 -12.56,20.41 -6.39,3.77 -20.36,5.65 -41.92,5.65 l -9.41,0 0,14.44 204.37,0 0,-14.44 -18.83,0 c -20.93,0 -34.64,-1.73 -41.13,-5.18 -6.49,-3.45 -10.83,-9.89 -13.02,-19.3 -2.2,-9.42 -3.31,-31.823 -3.31,-67.19 l 0,-222.907 c 0,-30.765 0.84,-50.023 2.51,-57.765 1.68,-7.746 6.23,-13.762 13.67,-18.051 7.42,-4.289 23.38,-6.434 47.87,-6.434 l 32.34,0 c 26.16,0 45.57,2.301 58.23,6.903 12.67,4.605 24.7,14.648 36.11,30.14 11.4,15.485 21.82,40.078 31.24,73.778 l 14.75,0"/><path
					id="path32"
					style="fill:#83171c;fill-opacity:1;fill-rule:nonzero;stroke:none"
					d="m 4222.62,852.684 0,-94.813 c 0,-40.398 0.73,-66.035 2.2,-76.922 1.46,-10.883 5.39,-19.148 11.78,-24.797 6.38,-5.648 18.99,-8.476 37.83,-8.476 33.48,0 58.6,8.578 75.35,25.742 16.74,17.156 25.11,42.902 25.11,77.23 0,35.161 -9.48,61.067 -28.41,77.704 -18.95,16.636 -52.28,24.957 -99.99,24.957 -7.54,0 -15.5,-0.211 -23.87,-0.625 z m 0,15.382 c 5.23,-0.211 9.63,-0.312 13.19,-0.312 45.21,0 76.08,7.113 92.61,21.348 16.53,14.234 24.81,37.25 24.81,69.066 0,22.184 -3.25,39.352 -9.73,51.492 -6.49,12.14 -16.23,21.5 -29.2,28.1 -12.98,6.59 -35.17,9.88 -66.56,9.88 -8.17,0 -16.54,-0.31 -25.12,-0.94 l 0,-178.634 z m 76.92,-5.964 c 48.35,-3.563 84.24,-15.594 107.69,-36.106 23.44,-20.516 35.16,-46.148 35.16,-76.914 0,-26.797 -7.95,-49.867 -23.86,-69.23 -15.91,-19.36 -36.26,-32.02 -61.07,-37.989 -24.8,-5.961 -58.02,-8.945 -99.67,-8.945 l -167.02,0 0,14.445 16.32,0 c 18.21,0 30.81,2.301 37.84,6.903 7.01,4.605 11.45,11.773 13.34,21.507 1.88,9.735 2.82,32.383 2.82,67.969 l 0,207.207 c 0,34.531 -1,56.821 -2.98,66.871 -1.99,10.04 -6.17,16.95 -12.56,20.72 -6.39,3.77 -20.36,5.65 -41.91,5.65 l -8.17,0 0,14.44 70.01,1.89 79.75,2.51 c 116.37,0 174.56,-33.49 174.56,-100.464 0,-27.632 -10,-49.816 -29.99,-66.554 -19.99,-16.75 -50.07,-28.055 -90.26,-33.91"/><path
					id="path34"
					style="fill:#83171c;fill-opacity:1;fill-rule:nonzero;stroke:none"
					d="m 4676.93,804.023 -75.35,181.457 -75.03,-181.457 150.38,0 z m 5.33,-14.132 -161.68,0 -10.99,-26.996 c -16.32,-39.141 -24.49,-64.672 -24.49,-76.606 0,-12.769 4.35,-22.445 13.03,-29.039 8.68,-6.594 19.83,-9.887 33.44,-9.887 l 0,-14.445 -126.53,0 0,14.445 c 18.84,2.926 32.86,9.575 42.07,19.93 9.21,10.363 20.31,32.184 33.28,65.461 1.05,3.137 6.07,15.277 15.07,36.422 l 123.69,295.424 12.25,0 142.22,-338.127 19.47,-44.578 c 4.39,-10.047 10.3,-17.95 17.73,-23.704 7.43,-5.761 18.58,-9.371 33.44,-10.828 l 0,-14.445 -167.33,0 0,14.445 c 20.5,0 34.37,1.512 41.59,4.551 7.23,3.031 10.83,9.051 10.83,18.051 0,4.598 -4.82,18.308 -14.43,41.129 l -32.66,78.797"/><path id="path36" style="fill:#4f4c4c;fill-opacity:1;fill-rule:nonzero;stroke:none" d="m 1820.91,278.559 22.33,134.035 19.22,0 -9.44,-56.512 51.98,0 9.45,56.512 19.23,0 -22.32,-134.035 -19.23,0 9.77,58.679 -51.98,0 -9.78,-58.679 -19.23,0"/><path
					id="path38"
					style="fill:#4f4c4c;fill-opacity:1;fill-rule:nonzero;stroke:none"
					d="m 2013.72,336.52 c 1.46,13.031 -7.82,27.71 -24.78,27.351 -17.27,0 -30.79,-13.949 -33.89,-27.351 l 58.67,0 z m -61.44,-14.668 c -2.45,-19.922 11.57,-30.071 24.94,-30.071 11.89,0 21.67,6.34 28.35,16.66 l 17.6,0 c -6.19,-10.871 -13.69,-19.011 -22,-24.453 -8.48,-5.617 -17.76,-8.328 -26.73,-8.328 -29.01,0 -42.53,25.899 -38.29,51.981 4.72,28.257 28.68,52.339 55.57,52.339 12.71,0 23.3,-5.25 30.31,-14.48 8.47,-11.781 10.26,-27.18 6.03,-43.648 l -75.78,0"/><path
					id="path40"
					style="fill:#4f4c4c;fill-opacity:1;fill-rule:nonzero;stroke:none"
					d="m 2057.57,327.461 c -2.28,-14.672 3.75,-34.231 25.26,-34.231 13.53,0 24.6,8.329 30.8,19.559 2.77,4.531 4.56,9.602 5.54,14.672 0.98,5.07 0.98,10.141 -0.16,14.668 -2.28,11.41 -10.76,20.293 -24.93,20.293 -18.58,0 -33.41,-16.301 -36.51,-34.781 l 0,-0.18 z m 70.24,-48.902 -16.95,0 2.93,17.211 c -8.47,-13.231 -22.32,-20.11 -36.34,-20.11 -28.52,0 -41.39,24.641 -36.83,52.172 5.05,30.059 28.52,52.148 54.27,52.148 17.6,0 27.05,-10.859 29.49,-20.281 l 2.94,17.383 16.95,0 -16.46,-98.523"/><path id="path42" style="fill:#4f4c4c;fill-opacity:1;fill-rule:nonzero;stroke:none" d="m 2172.48,412.594 16.95,0 -22.33,-134.035 -16.95,0 22.33,134.035"/><path id="path44" style="fill:#4f4c4c;fill-opacity:1;fill-rule:nonzero;stroke:none" d="m 2209.64,362.422 -15.97,0 2.44,14.66 15.97,0 5.87,35.512 16.95,0 -5.87,-35.512 17.11,0 -2.44,-14.66 -17.11,0 -14.02,-83.863 -16.95,0 14.02,83.863"/><path
					id="path46"
					style="fill:#4f4c4c;fill-opacity:1;fill-rule:nonzero;stroke:none"
					d="m 2264.73,412.594 16.95,0 -5.7,-33.883 -2.45,-15.391 c 7.17,11.602 20.04,16.852 31.61,16.66 13.86,0 21.84,-5.058 26.08,-13.761 4.07,-8.508 4.24,-20.289 1.95,-33.867 l -8.96,-53.793 -17.11,0 8.8,52.89 c 1.47,8.871 1.31,16.66 -1.3,22.09 -3.1,5.441 -8.31,8.699 -17.12,8.699 -8.96,0 -15.8,-3.808 -20.37,-9.058 -4.56,-5.258 -7.33,-12.321 -8.47,-19.02 l -9.29,-55.601 -16.95,0 22.33,134.035"/><path
					id="path48"
					style="fill:#4f4c4c;fill-opacity:1;fill-rule:nonzero;stroke:none"
					d="m 2439.12,313.148 c -8.8,-21.367 -29.01,-37.488 -51.17,-37.488 -29.01,0 -43.35,24.809 -38.79,52.172 4.89,29.156 28.85,52.148 55.41,52.148 21.19,0 37.81,-14.48 39.44,-38.21 l -17.44,0 c -2.45,13.218 -12.22,20.652 -24.28,20.652 -8.97,0.18 -15.97,-3.082 -23.31,-9.602 -6.19,-5.789 -11.08,-15.031 -12.87,-24.988 -3.26,-20.301 7.66,-34.602 24.61,-34.602 14.83,0.18 25.74,10.141 30.96,19.918 l 17.44,0"/><path
					id="path50"
					style="fill:#4f4c4c;fill-opacity:1;fill-rule:nonzero;stroke:none"
					d="m 2469.93,327.461 c -2.28,-14.672 3.75,-34.231 25.26,-34.231 13.53,0 24.61,8.329 30.8,19.559 2.77,4.531 4.57,9.602 5.54,14.672 0.98,5.07 0.98,10.141 -0.16,14.668 -2.28,11.41 -10.76,20.293 -24.93,20.293 -18.58,0 -33.41,-16.301 -36.51,-34.781 l 0,-0.18 z m 70.24,-48.902 -16.95,0 2.94,17.211 c -8.48,-13.231 -22.33,-20.11 -36.35,-20.11 -28.51,0 -41.39,24.641 -36.82,52.172 5.05,30.059 28.51,52.148 54.26,52.148 17.6,0 27.06,-10.859 29.5,-20.281 l 2.93,17.383 16.95,0 -16.46,-98.523"/><path
					id="path52"
					style="fill:#4f4c4c;fill-opacity:1;fill-rule:nonzero;stroke:none"
					d="m 2578.97,377.082 15.97,0 -2.44,-14.48 c 7.01,11.589 17.27,17.207 29.33,17.378 l -3.09,-18.832 -1.14,0 c -15.97,0 -25.91,-9.777 -29.33,-29.339 l -8.81,-53.25 -16.94,0 16.45,98.523"/><path
					id="path54"
					style="fill:#4f4c4c;fill-opacity:1;fill-rule:nonzero;stroke:none"
					d="m 2696.81,336.52 c 1.46,13.031 -7.83,27.71 -24.77,27.351 -17.28,0 -30.8,-13.949 -33.9,-27.351 l 58.67,0 z m -61.44,-14.668 c -2.44,-19.922 11.57,-30.071 24.93,-30.071 11.9,0 21.68,6.34 28.36,16.66 l 17.6,0 c -6.19,-10.871 -13.69,-19.011 -22,-24.453 -8.48,-5.617 -17.76,-8.328 -26.73,-8.328 -29.01,0 -42.53,25.899 -38.29,51.981 4.72,28.257 28.68,52.339 55.57,52.339 12.71,0 23.3,-5.25 30.31,-14.48 8.47,-11.781 10.26,-27.18 6.03,-43.648 l -75.78,0"/><path
					id="path56"
					style="fill:#4f4c4c;fill-opacity:1;fill-rule:nonzero;stroke:none"
					d="m 2769.19,278.559 22.32,134.035 26.4,0 20.21,-103.793 54.27,103.793 26.23,0 -22.32,-134.035 -17.77,0 19.4,113.019 -58.83,-113.019 -12.55,0 -21.02,113.019 -18.42,-113.019 -17.92,0"/><path
					id="path58"
					style="fill:#4f4c4c;fill-opacity:1;fill-rule:nonzero;stroke:none"
					d="m 2939.18,327.461 c -2.28,-14.672 3.75,-34.231 25.27,-34.231 13.52,0 24.61,8.329 30.8,19.559 2.77,4.531 4.56,9.602 5.53,14.672 0.98,5.07 0.98,10.141 -0.16,14.668 -2.28,11.41 -10.75,20.293 -24.93,20.293 -18.58,0 -33.41,-16.301 -36.51,-34.781 l 0,-0.18 z m 70.25,-48.902 -16.96,0 2.93,17.211 c -8.46,-13.231 -22.32,-20.11 -36.33,-20.11 -28.52,0 -41.4,24.641 -36.84,52.172 5.05,30.059 28.53,52.148 54.28,52.148 17.59,0 27.05,-10.859 29.49,-20.281 l 2.94,17.383 16.94,0 -16.45,-98.523"/><path
					id="path60"
					style="fill:#4f4c4c;fill-opacity:1;fill-rule:nonzero;stroke:none"
					d="m 3048.23,377.082 15.97,0 -2.6,-15.203 c 6.02,10.141 17.26,18.293 33.07,18.101 28.19,-0.359 31.94,-23.179 28.52,-43.648 l -9.61,-57.773 -17.11,0 8.95,53.429 c 2.94,17.75 -1.13,30.434 -18.4,30.25 -16.79,-0.187 -26.25,-11.777 -29.17,-28.797 l -9.14,-54.882 -16.94,0 16.46,98.523"/><path
					id="path62"
					style="fill:#4f4c4c;fill-opacity:1;fill-rule:nonzero;stroke:none"
					d="m 3155.47,327.461 c -2.27,-14.672 3.75,-34.231 25.27,-34.231 13.52,0 24.61,8.329 30.8,19.559 2.77,4.531 4.56,9.602 5.53,14.672 0.98,5.07 0.98,10.141 -0.16,14.668 -2.28,11.41 -10.75,20.293 -24.93,20.293 -18.58,0 -33.41,-16.301 -36.51,-34.781 l 0,-0.18 z m 70.25,-48.902 -16.96,0 2.93,17.211 c -8.46,-13.231 -22.32,-20.11 -36.34,-20.11 -28.51,0 -41.38,24.641 -36.82,52.172 5.05,30.059 28.51,52.148 54.27,52.148 17.59,0 27.05,-10.859 29.49,-20.281 l 2.94,17.383 16.94,0 -16.45,-98.523"/><path
					id="path64"
					style="fill:#4f4c4c;fill-opacity:1;fill-rule:nonzero;stroke:none"
					d="m 3268.1,327.832 c -2.93,-18.48 6.19,-34.602 24.94,-34.602 8.96,0 17.11,3.801 23.46,9.961 6.2,5.969 10.93,14.489 12.71,24.09 1.31,7.789 0.49,16.66 -3.26,23.367 -3.74,6.872 -10.59,11.59 -21.35,11.59 -16.77,0 -33.07,-13.949 -36.33,-34.238 l -0.17,-0.168 z m 71.54,-37.871 c -2.93,-17.191 -8.63,-28.25 -16.62,-36.582 -9.94,-10.508 -24.93,-17.93 -40.25,-17.93 -25.1,0 -37,16.301 -38.63,32.789 l 19.56,0 c 1.3,-4.347 4.08,-8.328 7.98,-11.418 4.73,-3.98 10.43,-5.238 14.35,-5.238 14.82,0 32.26,12.117 35.85,34.219 l 1.8,10.148 c -7.18,-11.051 -19.4,-20.289 -35.37,-20.289 -26.56,0 -42.05,22.461 -37.15,51.801 5.21,30.801 28.83,52.519 54.59,52.519 14.83,0 25.58,-8.691 28.68,-19.558 l 2.77,16.66 16.94,0 -14.5,-87.121"/><path
					id="path66"
					style="fill:#4f4c4c;fill-opacity:1;fill-rule:nonzero;stroke:none"
					d="m 3439.23,336.52 c 1.47,13.031 -7.82,27.71 -24.76,27.351 -17.28,0 -30.8,-13.949 -33.9,-27.351 l 58.66,0 z m -61.43,-14.668 c -2.45,-19.922 11.57,-30.071 24.93,-30.071 11.89,0 21.68,6.34 28.36,16.66 l 17.59,0 c -6.19,-10.871 -13.69,-19.011 -22,-24.453 -8.46,-5.617 -17.76,-8.328 -26.72,-8.328 -29.01,0 -42.53,25.899 -38.3,51.981 4.73,28.257 28.69,52.339 55.57,52.339 12.71,0 23.31,-5.25 30.31,-14.48 8.48,-11.781 10.28,-27.18 6.04,-43.648 l -75.78,0"/><path
					id="path68"
					style="fill:#4f4c4c;fill-opacity:1;fill-rule:nonzero;stroke:none"
					d="m 3479.51,377.082 15.97,0 -2.28,-13.941 c 5.05,8.339 16.78,16.839 29.65,16.839 8.15,0 16.14,-2.71 21.03,-10.492 1.79,-2.539 3.42,-7.797 4.07,-9.597 1.96,2.89 4.41,6.328 7.99,9.769 6.85,6.34 15.65,10.32 25.25,10.32 8.16,0 16.79,-2.531 22.17,-9.96 6.36,-8.872 6.68,-18.29 3.59,-37.129 l -9.13,-54.332 -16.95,0 8.97,53.613 c 1.3,8.148 1.78,16.297 -1.31,21.918 -2.29,5.058 -6.36,8.148 -14.34,8.148 -7.5,0 -14.51,-3.449 -18.74,-9.418 -4.57,-6.16 -6.03,-11.601 -7.33,-19.929 l -9.13,-54.332 -17.11,0 9.12,54.332 c 1.47,8.16 1.63,14.14 -0.32,19.558 -2.29,5.813 -7.01,9.602 -15.16,9.789 -7.99,0.184 -14.67,-4.168 -18.42,-9.597 -4.23,-5.25 -6.83,-12.141 -8.14,-20.11 l -8.97,-53.972 -16.94,0 16.46,98.523"/><path
					id="path70"
					style="fill:#4f4c4c;fill-opacity:1;fill-rule:nonzero;stroke:none"
					d="m 3699.05,336.52 c 1.46,13.031 -7.83,27.71 -24.77,27.351 -17.27,0 -30.8,-13.949 -33.9,-27.351 l 58.67,0 z m -61.44,-14.668 c -2.44,-19.922 11.57,-30.071 24.93,-30.071 11.9,0 21.68,6.34 28.36,16.66 l 17.6,0 c -6.19,-10.871 -13.69,-19.011 -22,-24.453 -8.47,-5.617 -17.77,-8.328 -26.72,-8.328 -29.01,0 -42.54,25.899 -38.3,51.981 4.72,28.257 28.68,52.339 55.56,52.339 12.72,0 23.31,-5.25 30.32,-14.48 8.47,-11.781 10.27,-27.18 6.03,-43.648 l -75.78,0"/><path
					id="path72"
					style="fill:#4f4c4c;fill-opacity:1;fill-rule:nonzero;stroke:none"
					d="m 3739.32,377.082 15.98,0 -2.61,-15.203 c 6.02,10.141 17.26,18.293 33.08,18.101 28.19,-0.359 31.94,-23.179 28.51,-43.648 l -9.61,-57.773 -17.11,0 8.96,53.429 c 2.94,17.75 -1.14,30.434 -18.41,30.25 -16.79,-0.187 -26.24,-11.777 -29.17,-28.797 l -9.13,-54.882 -16.95,0 16.46,98.523"/><path id="path74" style="fill:#4f4c4c;fill-opacity:1;fill-rule:nonzero;stroke:none" d="m 3846.9,362.422 -15.98,0 2.45,14.66 15.97,0 5.87,35.512 16.94,0 -5.87,-35.512 17.12,0 -2.45,-14.66 -17.11,0 -14.01,-83.863 -16.95,0 14.02,83.863"/><path
					id="path76"
					style="fill:#4f4c4c;fill-opacity:1;fill-rule:nonzero;stroke:none"
					d="m 3947.79,327.461 c -2.28,-14.672 3.75,-34.231 25.26,-34.231 13.53,0 24.61,8.329 30.8,19.559 2.76,4.531 4.56,9.602 5.54,14.672 0.97,5.07 0.97,10.141 -0.16,14.668 -2.28,11.41 -10.76,20.293 -24.94,20.293 -18.57,0 -33.41,-16.301 -36.5,-34.781 l 0,-0.18 z m 70.24,-48.902 -16.95,0 2.94,17.211 c -8.48,-13.231 -22.34,-20.11 -36.35,-20.11 -28.52,0 -41.39,24.641 -36.83,52.172 5.05,30.059 28.52,52.148 54.27,52.148 17.6,0 27.05,-10.859 29.49,-20.281 l 2.94,17.383 16.95,0 -16.46,-98.523"/><path
					id="path78"
					style="fill:#4f4c4c;fill-opacity:1;fill-rule:nonzero;stroke:none"
					d="m 4056.83,377.082 15.98,0 -2.61,-15.203 c 6.02,10.141 17.26,18.293 33.07,18.101 28.2,-0.359 31.95,-23.179 28.52,-43.648 l -9.61,-57.773 -17.11,0 8.97,53.429 c 2.93,17.75 -1.15,30.434 -18.42,30.25 -16.79,-0.187 -26.24,-11.777 -29.17,-28.797 l -9.13,-54.882 -16.95,0 16.46,98.523"/><path
					id="path80"
					style="fill:#4f4c4c;fill-opacity:1;fill-rule:nonzero;stroke:none"
					d="m 4164.08,327.832 c -2.77,-18.121 5.86,-34.602 25.43,-34.602 8.63,0 17.26,3.981 23.95,10.321 6.68,6.347 11.41,15.039 12.71,24.808 1.63,9.789 -0.33,18.301 -4.89,24.282 -4.57,6.148 -11.57,9.781 -20.21,9.781 -18.74,0 -33.9,-15.942 -36.83,-34.422 l -0.16,-0.168 z m 69.75,-49.273 -16.3,0 2.93,17.211 c -6.68,-10.149 -18.25,-20.11 -36.5,-20.11 -27.86,0 -41.55,23.899 -36.66,52.34 5.05,30.621 28.51,51.98 53.77,51.98 18.09,0 27.21,-11.23 29.5,-19.011 l 2.93,17.383 5.7,34.242 16.96,0 -22.33,-134.035"/><path
					id="path82"
					style="fill:#4f4c4c;fill-opacity:1;fill-rule:nonzero;stroke:none"
					d="m 4337.18,356.988 15.81,0 c 4.4,0 8.96,0.364 12.55,2.16 6.68,3.633 9.78,9.434 10.92,16.493 1.46,8.148 -1.63,13.578 -5.55,15.757 -2.61,1.633 -6.19,2.352 -12.22,2.352 l -15.32,0 -6.19,-36.762 z m -9.94,-59.59 19.39,0 c 3.91,0 8.97,0.364 13.21,2.161 6.34,2.902 11.89,8.523 13.84,18.671 1.47,9.231 -1.79,15.571 -7.65,18.469 -4.24,2.172 -8.16,2.36 -14.02,2.36 l -17.76,0 -7.01,-41.661 z m 0,115.196 36.02,0 c 11.4,0 19.39,-2.539 24.44,-7.246 7.82,-5.977 9.45,-16.489 7.65,-27.168 -2.44,-14.129 -10.58,-23.008 -20.03,-28.078 19.71,-7.422 17.43,-27.172 16.45,-33.141 -2.27,-13.231 -9.45,-24.461 -19.72,-30.609 -9.62,-6.52 -16.94,-7.793 -31.77,-7.793 l -35.36,0 22.32,134.035"/><path
					id="path84"
					style="fill:#4f4c4c;fill-opacity:1;fill-rule:nonzero;stroke:none"
					d="m 4481.59,336.52 c 1.46,13.031 -7.83,27.71 -24.77,27.351 -17.28,0 -30.8,-13.949 -33.9,-27.351 l 58.67,0 z m -61.44,-14.668 c -2.44,-19.922 11.57,-30.071 24.93,-30.071 11.9,0 21.68,6.34 28.36,16.66 l 17.6,0 c -6.19,-10.871 -13.69,-19.011 -22,-24.453 -8.47,-5.617 -17.77,-8.328 -26.72,-8.328 -29.02,0 -42.54,25.899 -38.3,51.981 4.72,28.257 28.68,52.339 55.56,52.339 12.72,0 23.31,-5.25 30.32,-14.48 8.47,-11.781 10.27,-27.18 6.03,-43.648 l -75.78,0"/><path
					id="path86"
					style="fill:#4f4c4c;fill-opacity:1;fill-rule:nonzero;stroke:none"
					d="m 4521.86,377.082 15.98,0 -2.61,-15.203 c 6.02,10.141 17.26,18.293 33.07,18.101 28.2,-0.359 31.95,-23.179 28.52,-43.648 l -9.61,-57.773 -17.11,0 8.96,53.429 c 2.94,17.75 -1.14,30.434 -18.41,30.25 -16.79,-0.187 -26.24,-11.777 -29.17,-28.797 l -9.13,-54.882 -16.95,0 16.46,98.523"/><path
					id="path88"
					style="fill:#4f4c4c;fill-opacity:1;fill-rule:nonzero;stroke:none"
					d="m 4688.59,336.52 c 1.46,13.031 -7.82,27.71 -24.77,27.351 -17.27,0 -30.8,-13.949 -33.89,-27.351 l 58.66,0 z m -61.44,-14.668 c -2.44,-19.922 11.57,-30.071 24.93,-30.071 11.9,0 21.68,6.34 28.36,16.66 l 17.6,0 c -6.19,-10.871 -13.69,-19.011 -22,-24.453 -8.47,-5.617 -17.77,-8.328 -26.72,-8.328 -29.01,0 -42.54,25.899 -38.3,51.981 4.73,28.257 28.68,52.339 55.57,52.339 12.71,0 23.31,-5.25 30.31,-14.48 8.47,-11.781 10.27,-27.18 6.03,-43.648 l -75.78,0"/><path
					id="path90"
					style="fill:#4f4c4c;fill-opacity:1;fill-rule:nonzero;stroke:none"
					d="m 4775.14,392.672 3.26,19.922 16.95,0 -3.26,-19.922 -16.95,0 z m -29.98,-30.25 -14.01,-83.863 -16.96,0 14.02,83.863 -12.05,0 2.44,14.66 12.06,0 1.14,6.707 c 4.88,29.699 25.91,31.156 38.46,31.332 l -2.45,-14.855 c -5.86,-0.172 -16.46,-0.172 -19.23,-17.387 l -0.98,-5.797 41.89,0 -16.47,-98.523 -16.94,0 14.01,83.863 -24.93,0"/><path id="path92" style="fill:#4f4c4c;fill-opacity:1;fill-rule:nonzero;stroke:none" d="m 4815.58,362.422 -15.98,0 2.45,14.66 15.97,0 5.87,35.512 16.94,0 -5.86,-35.512 17.11,0 -2.45,-14.66 -17.11,0 -14.01,-83.863 -16.94,0 14.01,83.863"/><path
					id="path94"
					style="fill:#4f4c4c;fill-opacity:1;fill-rule:nonzero;stroke:none"
					d="m 5018.81,319.309 c -11.57,-24.45 -37.16,-43.289 -64.53,-43.289 -36.34,0 -57.69,31.699 -51.34,69.742 6.04,36.758 37.16,69.359 74.48,69.359 32.43,-0.176 47.42,-25.539 50.19,-44.012 l -20.37,0 c -2.44,8.7 -12.06,25 -33.24,25.172 -25.59,0 -47.26,-23.359 -51.83,-50.519 -4.73,-27.891 9.79,-50.903 35.21,-50.903 23.3,0 37.8,19.563 41.23,24.45 l 20.2,0"/><path
					id="path96"
					style="fill:#4f4c4c;fill-opacity:1;fill-rule:nonzero;stroke:none"
					d="m 5048.66,327.641 c -3.26,-19.559 7.66,-34.231 24.61,-34.231 16.95,0 32.75,14.672 36.01,34.422 3.43,19.727 -7.5,34.406 -24.44,34.406 -16.96,0 -32.76,-14.679 -36.18,-34.406 l 0,-0.191 z M 5031.87,328 c 4.24,26.27 26.07,51.98 55.9,51.98 29.82,0 42.86,-25.71 38.46,-52.148 -4.4,-26.453 -26.07,-51.992 -55.89,-51.992 -29.83,0 -43.03,25.539 -38.63,51.992 l 0.16,0.168"/><path
					id="path98"
					style="fill:#4f4c4c;fill-opacity:1;fill-rule:nonzero;stroke:none"
					d="m 5151.83,377.082 15.98,0 -2.61,-15.203 c 6.02,10.141 17.26,18.293 33.08,18.101 28.19,-0.359 31.94,-23.179 28.51,-43.648 l -9.61,-57.773 -17.11,0 8.97,53.429 c 2.93,17.75 -1.15,30.434 -18.42,30.25 -16.79,-0.187 -26.24,-11.777 -29.17,-28.797 l -9.13,-54.882 -16.95,0 16.46,98.523"/><path
					id="path100"
					style="fill:#4f4c4c;fill-opacity:1;fill-rule:nonzero;stroke:none"
					d="m 5290.36,351.371 c 1.15,7.609 -2.11,13.399 -10.75,13.219 -8.31,0 -13.85,-6.16 -14.83,-12.68 -0.98,-7.789 4.73,-11.41 13.69,-14.308 12.87,-4.161 27.05,-8.5 23.96,-29.704 -2.93,-19.199 -19.4,-32.238 -37,-32.238 -14.01,0 -29.98,8.871 -27.05,31.34 l 16.79,0 c -1.31,-11.961 6.68,-15.941 13.04,-15.941 8.14,0 15.48,6.339 16.94,14.671 1.46,9.782 -4.73,13.032 -19.55,18.829 -11.74,4.16 -20.37,10.691 -18.09,25.543 3.1,18.648 18.74,29.878 34.88,29.878 12.21,0 27.05,-6.699 24.76,-28.609 l -16.79,0"/><path
					id="path102"
					style="fill:#4f4c4c;fill-opacity:1;fill-rule:nonzero;stroke:none"
					d="m 5396.63,278.559 -15.96,0 2.61,15.211 c -6.04,-10.141 -17.28,-18.29 -33.09,-18.11 -28.52,0.18 -31.93,23.18 -28.52,43.649 l 9.61,57.773 16.96,0 -8.97,-53.422 c -2.93,-17.75 1.14,-30.43 18.59,-30.43 16.62,0.18 26.23,11.95 29,28.801 l 9.29,55.051 16.95,0 -16.47,-98.523"/><path id="path104" style="fill:#4f4c4c;fill-opacity:1;fill-rule:nonzero;stroke:none" d="m 5441.15,412.594 16.94,0 -22.32,-134.035 -16.95,0 22.33,134.035"/><path id="path106" style="fill:#4f4c4c;fill-opacity:1;fill-rule:nonzero;stroke:none" d="m 5478.31,362.422 -15.97,0 2.45,14.66 15.97,0 5.86,35.512 16.95,0 -5.86,-35.512 17.11,0 -2.45,-14.66 -17.11,0 -14.02,-83.863 -16.94,0 14.01,83.863"/><path
					id="path108"
					style="fill:#4f4c4c;fill-opacity:1;fill-rule:nonzero;stroke:none"
					d="m 5531.12,327.461 c -2.28,-14.672 3.75,-34.231 25.26,-34.231 13.53,0 24.61,8.329 30.8,19.559 2.77,4.531 4.56,9.602 5.54,14.672 0.98,5.07 0.98,10.141 -0.17,14.668 -2.27,11.41 -10.75,20.293 -24.93,20.293 -18.57,0 -33.41,-16.301 -36.5,-34.781 l 0,-0.18 z m 70.24,-48.902 -16.95,0 2.93,17.211 c -8.47,-13.231 -22.33,-20.11 -36.34,-20.11 -28.52,0 -41.39,24.641 -36.83,52.172 5.05,30.059 28.52,52.148 54.27,52.148 17.6,0 27.05,-10.859 29.49,-20.281 l 2.94,17.383 16.95,0 -16.46,-98.523"/><path
					id="path110"
					style="fill:#4f4c4c;fill-opacity:1;fill-rule:nonzero;stroke:none"
					d="m 5640.16,377.082 15.98,0 -2.61,-15.203 c 6.02,10.141 17.26,18.293 33.08,18.101 28.19,-0.359 31.94,-23.179 28.51,-43.648 l -9.61,-57.773 -17.11,0 8.96,53.429 c 2.94,17.75 -1.14,30.434 -18.41,30.25 -16.79,-0.187 -26.24,-11.777 -29.17,-28.797 l -9.13,-54.882 -16.95,0 16.46,98.523"/><path id="path112" style="fill:#4f4c4c;fill-opacity:1;fill-rule:nonzero;stroke:none" d="m 5747.74,362.422 -15.98,0 2.45,14.66 15.97,0 5.87,35.512 16.94,0 -5.87,-35.512 17.12,0 -2.45,-14.66 -17.11,0 -14.01,-83.863 -16.95,0 14.02,83.863"/><path
					id="path114"
					style="fill:#4f4c4c;fill-opacity:1;fill-rule:nonzero;stroke:none"
					d="m 5831.83,351.371 c 1.14,7.609 -2.12,13.399 -10.75,13.219 -8.31,0 -13.86,-6.16 -14.84,-12.68 -0.97,-7.789 4.73,-11.41 13.7,-14.308 12.87,-4.161 27.05,-8.5 23.95,-29.704 -2.93,-19.199 -19.39,-32.238 -36.99,-32.238 -14.02,0 -29.98,8.871 -27.05,31.34 l 16.78,0 c -1.3,-11.961 6.68,-15.941 13.04,-15.941 8.15,0 15.48,6.339 16.94,14.671 1.47,9.782 -4.72,13.032 -19.55,18.829 -11.73,4.16 -20.37,10.691 -18.08,25.543 3.09,18.648 18.74,29.878 34.87,29.878 12.22,0 27.05,-6.699 24.77,-28.609 l -16.79,0"/><path
					id="path116"
					style="fill:#4f4c4c;fill-opacity:1;fill-rule:nonzero;stroke:none"
					d="m 2177.2,82.7813 c -2.12,-20.1094 9.94,-24.0899 16.29,-24.0899 10.76,0 21.67,9.4102 23.63,21.3672 2.45,14.8516 -8.31,18.293 -22.81,24.6324 -8.8,3.438 -28.52,11.231 -24.45,36.411 4.07,24.988 25.59,38.57 44.49,38.57 15.48,0 33.25,-9.41 30.15,-36.942 l -18.91,0 c -0.16,7.239 -1.13,18.84 -14.99,18.84 -9.78,0 -19.39,-7.441 -21.34,-18.84 -2.12,-13.05 6.19,-16.3 24.28,-24.281 13.85,-7.058 26.39,-15.578 22.81,-37.3006 -3.58,-21.7382 -20.04,-40.5781 -45.79,-40.5781 -23.96,0 -36.5,16.3086 -32.43,42.211 l 19.07,0"/><path
					id="path118"
					style="fill:#4f4c4c;fill-opacity:1;fill-rule:nonzero;stroke:none"
					d="m 2332.35,92.5508 c 2.61,16.1292 -4.56,34.4182 -25.26,34.4182 -8.8,0 -17.11,-3.797 -23.79,-10.137 -6.36,-6.16 -11.08,-14.852 -12.72,-24.6406 -1.62,-9.7695 0.33,-18.293 4.73,-24.4531 4.57,-6.1485 11.73,-9.957 20.37,-9.957 17.93,0 33.41,15.3984 36.51,34.5976 l 0.16,0.1719 z m -69.59,49.0782 16.13,0 -2.92,-17.188 c 8.63,11.758 21.5,20.09 37.31,20.09 30.48,0 40.09,-28.25 36.02,-52.699 -4.73,-27.8906 -26.73,-51.6211 -53.29,-51.6211 -18.41,0 -27.38,11.2305 -29.99,19.1993 l -2.77,-16.3008 -6.02,-35.8594 -16.95,0 22.48,134.379"/><path
					id="path120"
					style="fill:#4f4c4c;fill-opacity:1;fill-rule:nonzero;stroke:none"
					d="m 2437.97,101.07 c 1.47,13.039 -7.83,27.711 -24.77,27.352 -17.27,0 -30.8,-13.953 -33.89,-27.352 l 58.66,0 z m -61.44,-14.6716 c -2.44,-19.9179 11.57,-30.0664 24.93,-30.0664 11.9,0 21.68,6.3399 28.36,16.6563 l 17.6,0 c -6.19,-10.8672 -13.69,-19.0078 -22,-24.4492 -8.47,-5.6172 -17.76,-8.3282 -26.73,-8.3282 -29,0 -42.53,25.8985 -38.29,51.9805 4.73,28.2576 28.68,52.3396 55.57,52.3396 12.71,0 23.31,-5.25 30.31,-14.48 8.47,-11.77 10.27,-27.18 6.03,-43.6526 l -75.78,0"/><path
					id="path122"
					style="fill:#4f4c4c;fill-opacity:1;fill-rule:nonzero;stroke:none"
					d="m 2554.83,77.6992 c -8.8,-21.3672 -29.01,-37.4883 -51.17,-37.4883 -29.01,0 -43.35,24.8086 -38.78,52.168 4.88,29.1601 28.84,52.1521 55.4,52.1521 21.19,0 37.81,-14.48 39.44,-38.211 l -17.44,0 c -2.44,13.219 -12.22,20.649 -24.28,20.649 -8.96,0.179 -15.97,-3.078 -23.3,-9.598 -6.2,-5.789 -11.08,-15.031 -12.88,-24.9921 -3.26,-20.2969 7.66,-34.5976 24.61,-34.5976 14.83,0.1796 25.75,10.1406 30.96,19.9179 l 17.44,0"/><path id="path124" style="fill:#4f4c4c;fill-opacity:1;fill-rule:nonzero;stroke:none" d="m 2587.93,177.141 16.95,0 -3.27,-19.922 -16.94,0 3.26,19.922 z m -5.87,-35.512 16.95,0 -16.46,-98.5196 -16.95,0 16.46,98.5196"/><path
					id="path126"
					style="fill:#4f4c4c;fill-opacity:1;fill-rule:nonzero;stroke:none"
					d="m 2624.76,92.0195 c -2.28,-14.6797 3.75,-34.2382 25.26,-34.2382 13.53,0 24.61,8.3281 30.8,19.5585 2.77,4.5313 4.56,9.6016 5.54,14.6797 0.98,5.0625 0.98,10.1285 -0.16,14.6605 -2.28,11.41 -10.76,20.289 -24.93,20.289 -18.58,0 -33.41,-16.297 -36.51,-34.7776 l 0,-0.1719 z m 70.24,-48.9101 -16.95,0 2.93,17.2109 c -8.47,-13.2305 -22.32,-20.1094 -36.34,-20.1094 -28.51,0 -41.39,24.6407 -36.82,52.168 5.04,30.0701 28.51,52.1521 54.26,52.1521 17.6,0 27.05,-10.859 29.5,-20.281 l 2.93,17.379 16.95,0 L 2695,43.1094"/><path id="path128" style="fill:#4f4c4c;fill-opacity:1;fill-rule:nonzero;stroke:none" d="m 2739.67,177.141 16.95,0 -22.32,-134.0316 -16.96,0 22.33,134.0316"/><path id="path130" style="fill:#4f4c4c;fill-opacity:1;fill-rule:nonzero;stroke:none" d="m 2778.79,177.141 16.95,0 -3.27,-19.922 -16.94,0 3.26,19.922 z m -5.87,-35.512 16.95,0 -16.46,-98.5196 -16.95,0 16.46,98.5196"/><path id="path132" style="fill:#4f4c4c;fill-opacity:1;fill-rule:nonzero;stroke:none" d="m 2789.06,56.5117 56.71,70.4573 -43.67,0 2.44,14.66 62.42,0 -2.45,-14.84 -55.08,-69.0077 44.82,0 -2.45,-14.6719 -65.02,0 2.28,13.4023"/><path id="path134" style="fill:#4f4c4c;fill-opacity:1;fill-rule:nonzero;stroke:none" d="m 2887.5,177.141 16.95,0 -3.27,-19.922 -16.94,0 3.26,19.922 z m -5.87,-35.512 16.95,0 -16.46,-98.5196 -16.95,0 16.46,98.5196"/><path
					id="path136"
					style="fill:#4f4c4c;fill-opacity:1;fill-rule:nonzero;stroke:none"
					d="m 2920.75,141.629 15.97,0 -2.61,-15.199 c 6.03,10.14 17.28,18.289 33.09,18.101 28.19,-0.359 31.93,-23.179 28.52,-43.652 l -9.62,-57.7696 -17.11,0 8.96,53.4297 c 2.93,17.7499 -1.14,30.4299 -18.42,30.2499 -16.78,-0.18 -26.24,-11.777 -29.17,-28.8007 l -9.12,-54.8789 -16.95,0 16.46,98.5196"/><path
					id="path138"
					style="fill:#4f4c4c;fill-opacity:1;fill-rule:nonzero;stroke:none"
					d="m 3027.99,92.3789 c -2.93,-18.4805 6.19,-34.5976 24.93,-34.5976 8.97,0 17.12,3.8085 23.48,9.957 6.19,5.9726 10.92,14.4922 12.7,24.0937 1.31,7.7891 0.49,16.656 -3.26,23.367 -3.74,6.871 -10.58,11.59 -21.34,11.59 -16.79,0 -33.08,-13.937 -36.34,-34.2382 l -0.17,-0.1719 z m 71.54,-37.8594 C 3096.6,37.3203 3090.9,26.2617 3082.91,17.9297 3072.97,7.42969 3057.98,0 3042.66,0 c -25.1,0 -36.99,16.3008 -38.62,32.7891 l 19.56,0 c 1.3,-4.3477 4.07,-8.3282 7.98,-11.418 4.72,-3.9805 10.43,-5.2422 14.34,-5.2422 14.84,0 32.27,12.1328 35.85,34.2305 l 1.8,10.1406 c -7.17,-11.0508 -19.4,-20.2891 -35.36,-20.2891 -26.58,0 -42.05,22.461 -37.16,51.8086 5.21,30.7895 28.85,52.5115 54.59,52.5115 14.83,0 25.58,-8.691 28.68,-19.562 l 2.77,16.66 16.95,0 -14.51,-87.1095"/><path id="path140" style="fill:#4f4c4c;fill-opacity:1;fill-rule:nonzero;stroke:none" d="m 3190.01,177.141 16.95,0 -3.26,-19.922 -16.95,0 3.26,19.922 z m -5.87,-35.512 16.96,0 -16.47,-98.5196 -16.94,0 16.45,98.5196"/><path
					id="path142"
					style="fill:#4f4c4c;fill-opacity:1;fill-rule:nonzero;stroke:none"
					d="m 3223.27,141.629 15.97,0 -2.61,-15.199 c 6.03,10.14 17.27,18.289 33.08,18.101 28.19,-0.359 31.94,-23.179 28.52,-43.652 l -9.61,-57.7696 -17.11,0 8.95,53.4297 c 2.94,17.7499 -1.13,30.4299 -18.41,30.2499 -16.78,-0.18 -26.24,-11.777 -29.17,-28.8007 l -9.13,-54.8789 -16.94,0 16.46,98.5196"/><path id="path144" style="fill:#4f4c4c;fill-opacity:1;fill-rule:nonzero;stroke:none" d="m 3359.05,43.1094 22.32,134.0316 19.23,0 -9.45,-56.512 51.99,0 9.44,56.512 19.24,0 -22.33,-134.0316 -19.23,0 9.77,58.6796 -51.98,0 -9.78,-58.6796 -19.22,0"/><path id="path146" style="fill:#4f4c4c;fill-opacity:1;fill-rule:nonzero;stroke:none" d="m 3494.65,177.141 16.95,0 -3.26,-19.922 -16.95,0 3.26,19.922 z m -5.87,-35.512 16.96,0 -16.47,-98.5196 -16.94,0 16.45,98.5196"/><path
					id="path148"
					style="fill:#4f4c4c;fill-opacity:1;fill-rule:nonzero;stroke:none"
					d="m 3531.49,92.3789 c -2.93,-18.4805 6.19,-34.5976 24.93,-34.5976 8.96,0 17.12,3.8085 23.48,9.957 6.19,5.9726 10.91,14.4922 12.7,24.0937 1.31,7.7891 0.49,16.656 -3.26,23.367 -3.74,6.871 -10.59,11.59 -21.35,11.59 -16.79,0 -33.07,-13.937 -36.34,-34.2382 l -0.16,-0.1719 z m 71.54,-37.8594 C 3600.1,37.3203 3594.4,26.2617 3586.41,17.9297 3576.47,7.42969 3561.48,0 3546.16,0 c -25.1,0 -37,16.3008 -38.63,32.7891 l 19.56,0 c 1.3,-4.3477 4.08,-8.3282 7.98,-11.418 4.73,-3.9805 10.43,-5.2422 14.35,-5.2422 14.83,0 32.26,12.1328 35.85,34.2305 l 1.79,10.1406 c -7.16,-11.0508 -19.39,-20.2891 -35.36,-20.2891 -26.57,0 -42.05,22.461 -37.16,51.8086 5.22,30.7895 28.85,52.5115 54.59,52.5115 14.84,0 25.59,-8.691 28.69,-19.562 l 2.77,16.66 16.94,0 -14.5,-87.1095"/><path
					id="path150"
					style="fill:#4f4c4c;fill-opacity:1;fill-rule:nonzero;stroke:none"
					d="m 3645.42,177.141 16.95,0 -5.71,-33.871 -2.44,-15.399 c 7.17,11.598 20.05,16.848 31.61,16.66 13.86,0 21.85,-5.062 26.08,-13.75 4.08,-8.519 4.24,-20.301 1.96,-33.8826 l -8.96,-53.789 -17.11,0 8.8,52.8906 c 1.46,8.871 1.29,16.66 -1.31,22.09 -3.1,5.441 -8.31,8.699 -17.11,8.699 -8.97,0 -15.81,-3.809 -20.37,-9.059 -4.56,-5.261 -7.34,-12.32 -8.48,-19.0191 l -9.29,-55.6015 -16.94,0 22.32,134.0316"/><path
					id="path152"
					style="fill:#4f4c4c;fill-opacity:1;fill-rule:nonzero;stroke:none"
					d="m 3806.28,101.07 c 1.47,13.039 -7.82,27.711 -24.76,27.352 -17.28,0 -30.8,-13.953 -33.9,-27.352 l 58.66,0 z m -61.43,-14.6716 c -2.44,-19.9179 11.57,-30.0664 24.93,-30.0664 11.89,0 21.68,6.3399 28.36,16.6563 l 17.6,0 c -6.2,-10.8672 -13.7,-19.0078 -22.01,-24.4492 -8.46,-5.6172 -17.76,-8.3282 -26.71,-8.3282 -29.02,0 -42.54,25.8985 -38.31,51.9805 4.73,28.2576 28.69,52.3396 55.57,52.3396 12.72,0 23.31,-5.25 30.31,-14.48 8.48,-11.77 10.28,-27.18 6.04,-43.6526 l -75.78,0"/><path
					id="path154"
					style="fill:#4f4c4c;fill-opacity:1;fill-rule:nonzero;stroke:none"
					d="m 3846.56,141.629 15.97,0 -2.45,-14.481 c 7.01,11.59 17.28,17.211 29.34,17.383 l -3.1,-18.832 -1.14,0 c -15.97,0 -25.91,-9.777 -29.34,-29.3396 l -8.8,-53.25 -16.94,0 16.46,98.5196"/><path id="path156" style="fill:#4f4c4c;fill-opacity:1;fill-rule:nonzero;stroke:none" d="m 3955.77,177.141 67.47,0 -3.1,-18.84 -48.24,0 -6.36,-38.031 47.59,0 -3.1,-18.661 -47.59,0 -6.67,-39.6598 48.23,0 -3.1,-18.8398 -67.46,0 22.33,134.0316"/><path
					id="path158"
					style="fill:#4f4c4c;fill-opacity:1;fill-rule:nonzero;stroke:none"
					d="m 4040.52,92.3789 c -2.76,-18.1172 5.87,-34.5976 25.43,-34.5976 8.63,0 17.27,3.9804 23.96,10.3203 6.68,6.3476 11.4,15.039 12.7,24.8086 1.63,9.7888 -0.32,18.3008 -4.88,24.2808 -4.57,6.149 -11.57,9.778 -20.22,9.778 -18.74,0 -33.89,-15.938 -36.82,-34.4182 l -0.17,-0.1719 z m 69.76,-49.2695 -16.3,0 2.93,17.2109 c -6.68,-10.1484 -18.25,-20.1094 -36.51,-20.1094 -27.86,0 -41.55,23.8985 -36.66,52.3399 5.05,30.6212 28.52,51.9802 53.77,51.9802 18.1,0 27.22,-11.23 29.51,-19.011 l 2.92,17.378 5.71,34.243 16.95,0 -22.32,-134.0316"/><path
					id="path160"
					style="fill:#4f4c4c;fill-opacity:1;fill-rule:nonzero;stroke:none"
					d="m 4214.43,43.1094 -15.97,0 2.61,15.2109 c -6.04,-10.1406 -17.28,-18.289 -33.09,-18.1094 -28.51,0.1797 -31.93,23.1797 -28.51,43.6485 l 9.61,57.7696 16.95,0 -8.97,-53.4181 c -2.93,-17.75 1.15,-30.4296 18.59,-30.4296 16.62,0.1796 26.23,11.9492 29,28.8007 l 9.29,55.047 16.95,0 -16.46,-98.5196"/><path
					id="path162"
					style="fill:#4f4c4c;fill-opacity:1;fill-rule:nonzero;stroke:none"
					d="m 4329.66,77.6992 c -8.8,-21.3672 -29,-37.4883 -51.17,-37.4883 -29,0 -43.34,24.8086 -38.78,52.168 4.88,29.1601 28.84,52.1521 55.41,52.1521 21.18,0 37.8,-14.48 39.43,-38.211 l -17.44,0 c -2.44,13.219 -12.21,20.649 -24.27,20.649 -8.97,0.179 -15.97,-3.078 -23.31,-9.598 -6.2,-5.789 -11.08,-15.031 -12.88,-24.9921 -3.25,-20.2969 7.67,-34.5976 24.61,-34.5976 14.84,0.1796 25.76,10.1406 30.97,19.9179 l 17.43,0"/><path
					id="path164"
					style="fill:#4f4c4c;fill-opacity:1;fill-rule:nonzero;stroke:none"
					d="m 4360.48,92.0195 c -2.27,-14.6797 3.75,-34.2382 25.27,-34.2382 13.52,0 24.6,8.3281 30.8,19.5585 2.76,4.5313 4.56,9.6016 5.53,14.6797 0.98,5.0625 0.98,10.1285 -0.15,14.6605 -2.29,11.41 -10.76,20.289 -24.94,20.289 -18.58,0 -33.41,-16.297 -36.51,-34.7776 l 0,-0.1719 z m 70.25,-48.9101 -16.96,0 2.94,17.2109 c -8.47,-13.2305 -22.33,-20.1094 -36.35,-20.1094 -28.51,0 -41.38,24.6407 -36.82,52.168 5.05,30.0701 28.51,52.1521 54.27,52.1521 17.59,0 27.05,-10.859 29.49,-20.281 l 2.94,17.379 16.94,0 -16.45,-98.5196"/><path id="path166" style="fill:#4f4c4c;fill-opacity:1;fill-rule:nonzero;stroke:none" d="m 4473.44,126.969 -15.98,0 2.46,14.66 15.96,0 5.87,35.512 16.94,0 -5.86,-35.512 17.11,0 -2.45,-14.66 -17.11,0 -14.01,-83.8596 -16.94,0 14.01,83.8596"/><path id="path168" style="fill:#4f4c4c;fill-opacity:1;fill-rule:nonzero;stroke:none" d="m 4528.53,177.141 16.94,0 -3.25,-19.922 -16.95,0 3.26,19.922 z m -5.87,-35.512 16.95,0 -16.46,-98.5196 -16.95,0 16.46,98.5196"/><path
					id="path170"
					style="fill:#4f4c4c;fill-opacity:1;fill-rule:nonzero;stroke:none"
					d="m 4565.36,92.1914 c -3.25,-19.5625 7.67,-34.2305 24.61,-34.2305 16.96,0 32.76,14.668 36.02,34.418 3.42,19.7301 -7.5,34.4101 -24.44,34.4101 -16.96,0 -32.76,-14.68 -36.19,-34.4101 l 0,-0.1875 z m -16.77,0.3594 c 4.23,26.2692 26.07,51.9802 55.89,51.9802 29.82,0 42.86,-25.711 38.46,-52.1521 -4.4,-26.4492 -26.07,-51.9883 -55.9,-51.9883 -29.82,0 -43.02,25.5391 -38.62,51.9883 l 0.17,0.1719"/><path
					id="path172"
					style="fill:#4f4c4c;fill-opacity:1;fill-rule:nonzero;stroke:none"
					d="m 4668.02,139.898 15.68,0 -2.55,-14.949 c 5.91,9.973 16.96,17.973 32.49,17.801 27.69,-0.359 31.37,-22.781 28.01,-42.8789 l -9.44,-56.7617 -16.81,0 8.8,52.4922 c 2.88,17.4294 -1.12,29.8784 -18.08,29.7074 -16.49,-0.18 -25.77,-11.571 -28.66,-28.2895 l -8.96,-53.9101 -16.64,0 16.16,96.7886"/><path
					id="path174"
					style="fill:#83171c;fill-opacity:1;fill-rule:nonzero;stroke:none"
					d="M 846.613,1399.57 C 836.059,1127.56 782.805,853.367 645.754,607.023 513.578,364.16 287.52,159.559 0,36.8203 l 207.445,0 C 295.266,92.4102 375.805,155.41 445.355,224.891 556.23,334.609 640.824,458.992 701.906,588.734 824.105,849.387 856.016,1127.5 846.613,1399.57"/><path
					id="path176"
					style="fill:#83171c;fill-opacity:1;fill-rule:nonzero;stroke:none"
					d="m 1017.78,1399.57 c 10.55,-272.01 63.81,-546.203 200.86,-792.547 132.17,-242.863 358.24,-447.464 645.75,-570.2027 l -207.44,0 C 1569.12,92.4102 1488.59,155.41 1419.04,224.891 1308.16,334.609 1223.57,458.992 1162.48,588.734 1040.29,849.387 1008.38,1127.5 1017.78,1399.57"/><path id="path178" style="fill:#a7a5a6;fill-opacity:1;fill-rule:nonzero;stroke:none" d="m 329.012,36.8203 c 0,0 408.945,230.1917 519.14,230.1917 110.196,0 78.364,0 78.364,0 l -32.465,-230.1917 -565.039,0"/><path id="path180" style="fill:#a7a5a6;fill-opacity:1;fill-rule:nonzero;stroke:none" d="m 1543.58,36.8203 c 0,0 -408.94,230.1917 -519.15,230.1917 -110.192,0 -78.356,0 -78.356,0 l 32.465,-230.1917 565.041,0"/><path id="path182" style="fill:#5b6264;fill-opacity:1;fill-rule:nonzero;stroke:none" d="M 400.027,172.059 C 386.535,160.02 372.648,148.16 358.398,136.48 l 0,-74.9683 c 11.493,6.3086 25.586,13.9688 41.629,22.5977 l 0,87.9496"/><path id="path184" style="fill:#5b6264;fill-opacity:1;fill-rule:nonzero;stroke:none" d="M 544.504,323.531 C 527.688,302.75 510.188,282.52 492.078,262.82 l 0,-130.39 c 16.934,8.679 34.512,17.55 52.426,26.429 l 0,164.672"/><path id="path186" style="fill:#5b6264;fill-opacity:1;fill-rule:nonzero;stroke:none" d="M 671.406,512.738 C 651.184,475.93 629.258,440.305 605.727,405.883 l 0,-217.363 c 22.125,10.441 44.203,20.531 65.679,29.902 l 0,294.316"/><path id="path188" style="fill:#5b6264;fill-opacity:1;fill-rule:nonzero;stroke:none" d="M 822.004,939.113 C 803.445,842.637 777.09,751.555 742.855,665.145 l 0,-417.586 c 30.254,11.281 57.356,19.711 79.149,23.871 l 0,667.683"/><path id="path190" style="fill:#5b6264;fill-opacity:1;fill-rule:nonzero;stroke:none" d="m 1505.99,136.48 c -14.25,11.68 -28.14,23.54 -41.63,35.579 l 0,-83.559 c 15.72,-8.4102 29.75,-16.0195 41.63,-22.5 l 0,70.48"/><path id="path192" style="fill:#5b6264;fill-opacity:1;fill-rule:nonzero;stroke:none" d="m 1372.32,262.82 c -18.12,19.7 -35.61,39.93 -52.43,60.711 l 0,-160.609 c 17.86,-8.801 35.44,-17.633 52.43,-26.301 l 0,126.199"/><path id="path194" style="fill:#5b6264;fill-opacity:1;fill-rule:nonzero;stroke:none" d="m 1258.67,405.883 c -23.53,34.422 -45.46,70.047 -65.68,106.855 l 0,-290.769 c 21.39,-9.207 43.47,-19.207 65.68,-29.598 l 0,213.512"/><path id="path196" style="fill:#5b6264;fill-opacity:1;fill-rule:nonzero;stroke:none" d="m 1121.54,665.145 c -34.24,86.41 -60.59,177.492 -79.15,273.968 l 0,-666.261 c 21.16,-3.161 48.35,-11.114 79.15,-22.27 l 0,414.563"/><path id="path198" style="fill:#83171c;fill-opacity:1;fill-rule:nonzero;stroke:none" d="m 3124.54,615.535 15.1797,0 0,464.676 -15.1797,0 0,-464.676 z"/></g>
			</g>
		</g>
	</g>
</svg>
